<svg width="205" height="17" viewBox="0 0 205 17" fill="none" xmlns="http://www.w3.org/2000/svg">
<path d="M3.6058 4.6049V9.63858H14.2325V4.6049H3.6058ZM12.5546 7.96069H5.28369V6.28279H12.5546V7.96069Z" fill="#D4D4D4"/>
<path d="M1.92789 11.3165V1.24912H0.25V12.9944H8.08017V11.3165H1.92789Z" fill="#D4D4D4"/>
<path d="M3.60579 1.24912V2.92702H15.9103V11.3165H9.75806V12.9944H15.9103V14.6723H0.25V16.3502H17.5882V1.24912H3.60579Z" fill="#D4D4D4"/>
<path d="M37.7652 15.7671H29.6169V1.41458H32.5122V13.2027H37.7652V15.7671Z" fill="#D4D4D4"/>
<path d="M69.8206 2.3659C71.1028 1.86956 72.5505 1.62139 74.1636 1.62139C75.7767 1.62139 76.9348 1.91093 77.638 2.53136C78.3825 3.15178 78.7547 4.14446 78.7547 5.46804C78.7547 6.83298 78.217 7.86703 77.1416 8.57018C77.8034 8.94243 78.2998 9.31469 78.5893 9.72831C78.8788 10.1419 79.0029 10.7624 79.0029 11.5896C79.0029 13.0786 78.6306 14.1954 77.8861 14.9399C77.1416 15.6844 75.9421 16.0567 74.2877 16.0567C73.0468 16.0567 71.7646 15.8912 70.441 15.519L69.7379 15.3122L69.9033 13.0786C71.4751 13.3268 72.7986 13.4922 73.874 13.4922C75.3217 13.4922 76.0662 12.8718 76.0662 11.631C76.0662 11.0933 75.8594 10.6796 75.4871 10.3901C75.1149 10.1006 74.6186 9.93512 74.0395 9.93512H71.2269V7.53613H74.0395C74.4945 7.53613 74.9081 7.32933 75.2803 6.95707C75.6526 6.54345 75.818 6.12983 75.818 5.63349C75.818 4.64081 75.1149 4.14446 73.75 4.14446C72.7986 4.14446 71.7646 4.22719 70.6478 4.434L70.1101 4.51672L69.8206 2.3659Z" fill="#D4D4D4"/>
<path d="M90.7083 15.7671V1.00096H99.3529V1.70412H91.4942V7.86703H98.1121V8.57018H91.4942V15.064H99.3529V15.7671H90.7083Z" fill="#D4D4D4"/>
<path d="M110.769 15.7671V1.00096H112.547L119.579 15.064H120.158V1.00096H120.902V15.7671H119.124L112.092 1.70412H111.555V15.7671H110.769Z" fill="#D4D4D4"/>
<path d="M133.27 15.7671V1.00096H141.914V1.70412H134.055V7.86703H140.673V8.57018H134.055V15.064H141.914V15.7671H133.27Z" fill="#D4D4D4"/>
<path d="M154.075 9.64559V15.7671H153.33V1.00096H158.624C160.113 1.00096 161.23 1.33186 161.933 1.99365C162.637 2.65544 163.009 3.73085 163.009 5.21987C163.009 7.70158 161.975 9.14925 159.948 9.56287L163.298 15.7671H162.43L159.121 9.64559H154.075ZM162.223 5.21987C162.223 3.97902 161.933 3.11042 161.354 2.53136C160.775 1.99365 159.865 1.70412 158.624 1.70412H154.075V8.90107H158.624C161.023 8.94244 162.223 7.70158 162.223 5.21987Z" fill="#D4D4D4"/>
<path d="M180.381 8.44609H184.31V15.4362C182.49 15.7671 180.96 15.9739 179.678 15.9739C177.609 15.9739 176.162 15.3535 175.376 14.1127C174.549 12.8718 174.176 10.9692 174.176 8.48746C174.176 7.2466 174.259 6.21255 174.425 5.34395C174.59 4.47536 174.88 3.68948 175.252 2.98633C176.038 1.58003 177.527 0.876883 179.719 0.876883C180.96 0.876883 182.283 1.00097 183.69 1.2905L184.351 1.41458L184.269 2.1591C182.49 1.78684 181.043 1.62139 179.926 1.62139C178.809 1.62139 177.94 1.78684 177.279 2.07637C176.658 2.36591 176.162 2.86225 175.831 3.52404C175.5 4.18583 175.252 4.88898 175.128 5.67485C175.004 6.46073 174.921 7.41205 174.921 8.52882C174.921 9.64559 175.004 10.5969 175.128 11.3828C175.252 12.1687 175.5 12.8718 175.831 13.4922C176.493 14.7331 177.775 15.3122 179.636 15.3122C180.67 15.3122 181.952 15.1881 183.524 14.8985V9.23197H180.381V8.44609Z" fill="#D4D4D4"/>
<path d="M199.821 15.7671H199.076V9.39741L194.278 1.00096H195.147L199.449 8.57018L203.75 1.00096H204.619L199.821 9.39741V15.7671Z" fill="#D4D4D4"/>
<path d="M53.1104 3.60675C55.8402 3.60675 58.0324 5.8403 58.0324 8.52881C58.0324 11.2173 55.7989 13.4509 53.1104 13.4509C50.3805 13.4509 48.1883 11.2173 48.1883 8.52881C48.1883 5.8403 50.3805 3.60675 53.1104 3.60675ZM53.1104 0.711426C48.7674 0.711426 45.293 4.22718 45.293 8.52881C45.293 12.8718 48.8087 16.3462 53.1104 16.3462C57.412 16.3462 60.9277 12.8304 60.9277 8.52881C60.9277 4.22718 57.412 0.711426 53.1104 0.711426Z" fill="#D4D4D4"/>
</svg>
