<svg width="160" height="34" viewBox="0 0 160 34" fill="none" xmlns="http://www.w3.org/2000/svg">
<path d="M42.3386 11.6344C42.3386 11.309 42.3386 10.9835 42.3046 10.6719C42.2807 10.3753 42.233 10.0811 42.1618 9.79249C42.0936 9.54005 41.9756 9.30443 41.815 9.10002C41.6563 8.89881 41.4361 8.75744 41.1894 8.69839C41.0262 8.64992 40.863 8.6153 40.6862 8.58068L40.1762 8.51836C40.1365 8.51997 40.0972 8.51049 40.0624 8.49096C40.0276 8.47143 39.9988 8.44259 39.979 8.40756C39.9346 8.33225 39.9112 8.24609 39.9112 8.15827C39.9112 8.07046 39.9346 7.9843 39.979 7.90899C39.9982 7.87342 40.0269 7.84414 40.0618 7.82453C40.0967 7.80492 40.1364 7.79579 40.1762 7.7982C40.6794 7.7982 41.1214 7.79819 41.5362 7.83974C41.951 7.88129 42.393 7.88821 42.8961 7.88821H43.6305C43.9025 7.88821 44.1813 7.88822 44.4737 7.85359H45.3101L46.0785 7.7705C46.6841 7.77313 47.2887 7.82173 47.8873 7.91591C48.4868 8.00871 49.069 8.19314 49.6145 8.46296C50.1372 8.72202 50.5917 9.1042 50.9404 9.57782C51.3021 10.1143 51.4834 10.7557 51.4572 11.4059C51.4671 11.8201 51.3955 12.2322 51.2464 12.6177C51.1138 12.9483 50.9224 13.2511 50.682 13.511C50.4412 13.7857 50.1588 14.0194 49.8457 14.2035C49.5207 14.3913 49.1819 14.5534 48.8325 14.6882C48.7169 14.7297 48.6625 14.7921 48.6829 14.8613C48.6898 14.8998 48.7077 14.9354 48.7343 14.9637C48.7609 14.992 48.795 15.0118 48.8325 15.0206C49.3581 15.1833 49.8698 15.3894 50.3625 15.6369C50.7891 15.8459 51.1795 16.1242 51.5184 16.4609C51.8206 16.7762 52.0525 17.1541 52.1984 17.5688C52.3719 18.0544 52.4549 18.5687 52.4432 19.0853C52.4677 19.7517 52.3274 20.4136 52.0352 21.0104C51.7784 21.5014 51.4013 21.9165 50.9404 22.2153C50.4632 22.5118 49.9384 22.7204 49.3901 22.8316C48.7989 22.9514 48.1976 23.0117 47.5949 23.0116C47.3161 23.0116 47.0033 23.0116 46.6565 23.0116H44.4805C44.0997 23.0116 43.7529 23.0116 43.4333 23.0116H41.8762L41.1962 23.067L40.3734 23.1432C40.3284 23.1523 40.2818 23.1488 40.2387 23.1329C40.1955 23.117 40.1574 23.0895 40.1286 23.0531C40.0737 22.9839 40.0405 22.8995 40.0334 22.8108C40.0275 22.7166 40.0488 22.6228 40.0946 22.5407C40.1223 22.4953 40.1601 22.4572 40.205 22.4296C40.2499 22.4019 40.3006 22.3854 40.353 22.3815C40.6611 22.3474 40.9659 22.2872 41.2642 22.2014C41.4995 22.1403 41.7166 22.0214 41.8966 21.8552C42.0598 21.6898 42.1791 21.4849 42.2434 21.2597C42.3299 20.9257 42.3621 20.5794 42.3386 20.2348V11.6344ZM44.7185 14.0027C44.717 14.1474 44.7572 14.2895 44.8341 14.4112C44.8822 14.4732 44.9446 14.5222 45.0158 14.5536C45.087 14.585 45.1648 14.5979 45.2421 14.5913H45.6637C46.12 14.5967 46.5757 14.5549 47.0237 14.4666C47.4006 14.3945 47.7564 14.2358 48.0641 14.0027C48.3627 13.7639 48.5967 13.4518 48.7441 13.0955C48.9292 12.6226 49.0149 12.1155 48.9957 11.6067C49.0348 11.2042 48.9869 10.7979 48.8553 10.4163C48.7237 10.0347 48.5117 9.68703 48.2341 9.39778C47.6105 8.90493 46.8326 8.65892 46.0445 8.70532H45.2965C45.0177 8.70532 44.8545 8.78149 44.8001 8.94076C44.7312 9.21184 44.7037 9.49211 44.7185 9.77171V14.0027ZM44.7185 18.5175C44.7092 19.1578 44.7342 19.7981 44.7933 20.4356C44.8136 20.8109 44.9309 21.174 45.1333 21.4882C45.3237 21.7267 45.5959 21.8826 45.8949 21.9244C46.3447 21.9952 46.7998 22.0253 47.2549 22.0145C47.6068 22.0484 47.9617 21.9992 48.2919 21.8707C48.6222 21.7422 48.9188 21.5378 49.1589 21.2735C49.5985 20.615 49.8047 19.8237 49.7437 19.0299C49.7649 18.4282 49.6606 17.8287 49.4377 17.2711C49.2556 16.849 48.9699 16.4818 48.6081 16.2047C48.2435 15.9389 47.8254 15.7591 47.3841 15.6784C46.8915 15.5789 46.3903 15.5302 45.8881 15.533H45.4665C45.3517 15.517 45.2348 15.5361 45.1307 15.5879C45.0266 15.6397 44.9399 15.7218 44.8817 15.8238C44.7842 16.041 44.7354 16.2775 44.7389 16.5163L44.7185 18.5175Z" fill="#D4D4D4"/>
<path d="M56.4349 20.768C56.4349 21.0727 56.4349 21.322 56.4349 21.5297C56.4471 21.716 56.5133 21.8943 56.6253 22.0422C56.7596 22.1923 56.9348 22.2983 57.1285 22.3468C57.4476 22.4399 57.7761 22.4957 58.1077 22.513C58.1399 22.517 58.171 22.5276 58.1991 22.5443C58.2272 22.561 58.2516 22.5833 58.2709 22.61C58.3071 22.6679 58.326 22.7352 58.3253 22.8039C58.3443 22.8698 58.3419 22.9402 58.3184 23.0047C58.3007 23.0318 58.2763 23.0538 58.2477 23.0683C58.2191 23.0829 58.1872 23.0896 58.1553 23.0878C57.7012 23.0905 57.2473 23.0697 56.7953 23.0255C56.4227 22.9825 56.0482 22.9594 55.6733 22.9562C55.2938 22.9586 54.9147 22.9817 54.5377 23.0255C54.1628 23.0671 53.786 23.0879 53.4089 23.0878C53.38 23.088 53.3516 23.0805 53.3265 23.0659C53.3014 23.0513 53.2806 23.0302 53.2661 23.0047C53.2289 22.9551 53.2097 22.8939 53.2117 22.8316C53.2077 22.7625 53.2269 22.6942 53.2661 22.6377C53.284 22.6112 53.3072 22.5889 53.3342 22.5722C53.3611 22.5555 53.3912 22.5448 53.4225 22.5407C53.6871 22.5215 53.9479 22.4656 54.1977 22.3745C54.3608 22.321 54.5035 22.2169 54.6057 22.0768C54.6916 21.9342 54.7429 21.7728 54.7553 21.6059C54.7671 21.3753 54.7671 21.1441 54.7553 20.9135V18.2198C54.7553 17.6242 54.7553 17.1603 54.7553 16.8348C54.7452 16.559 54.6876 16.2872 54.5853 16.0316C54.5451 15.9424 54.4867 15.8629 54.414 15.7985C54.3413 15.734 54.256 15.686 54.1637 15.6577C53.9051 15.5912 53.6411 15.5495 53.3749 15.533C53.3469 15.5334 53.3194 15.5249 53.2963 15.5088C53.2732 15.4927 53.2555 15.4697 53.2457 15.443C53.2143 15.3884 53.1979 15.3262 53.1981 15.263C53.1976 15.1975 53.214 15.133 53.2457 15.076C53.2598 15.0482 53.2813 15.0249 53.3078 15.009C53.3342 14.9931 53.3646 14.9851 53.3953 14.986L54.3881 14.9029C54.8247 14.8713 55.2574 14.7971 55.6801 14.6813C55.8132 14.6409 55.955 14.6409 56.0881 14.6813C56.1969 14.6813 56.2445 14.8198 56.2377 14.9929L56.1969 16.1562C56.1933 16.1625 56.1914 16.1697 56.1914 16.177C56.1914 16.1843 56.1933 16.1915 56.1969 16.1978C56.1969 16.1978 56.1969 16.1978 56.2513 16.1978C56.4679 15.7312 56.7811 15.3178 57.1693 14.986C57.5861 14.6634 58.1016 14.5015 58.6244 14.5289C58.8254 14.5126 59.0276 14.5387 59.2183 14.6054C59.409 14.6721 59.5841 14.7781 59.7328 14.9167C59.9659 15.1778 60.0924 15.5195 60.0864 15.8723C60.0862 15.9767 60.0657 16.0801 60.026 16.1764C59.9863 16.2726 59.9283 16.3599 59.8552 16.4332C59.7677 16.5247 59.6613 16.5952 59.5437 16.6396C59.426 16.6839 59.3002 16.7009 59.1752 16.6894C59.0713 16.7031 58.9656 16.692 58.8665 16.6572C58.7675 16.6223 58.6776 16.5647 58.604 16.4886C58.5017 16.3668 58.444 16.2126 58.4408 16.0524C58.4486 15.9141 58.4154 15.7766 58.3456 15.6577C58.2917 15.6012 58.2253 15.5586 58.152 15.5333C58.0787 15.5081 58.0006 15.5008 57.9241 15.5122C57.7012 15.513 57.4854 15.5912 57.3121 15.7338C57.1258 15.8865 56.9651 16.0689 56.8361 16.2739C56.7085 16.4726 56.6057 16.6866 56.5301 16.911C56.4724 17.0737 56.4381 17.2439 56.4281 17.4165L56.4349 20.768Z" fill="#D4D4D4"/>
<path d="M63.4659 20.768C63.4659 21.0727 63.4659 21.322 63.4659 21.5297C63.4717 21.7073 63.5134 21.8817 63.5883 22.0422C63.6644 22.1775 63.7812 22.2843 63.9215 22.3468C64.1221 22.4365 64.3357 22.4926 64.5538 22.513C64.6193 22.525 64.6778 22.5622 64.717 22.6169C64.7481 22.6716 64.7644 22.7337 64.7644 22.7969C64.7644 22.8601 64.7481 22.9222 64.717 22.977C64.6984 23.0032 64.6739 23.0244 64.6455 23.0389C64.617 23.0534 64.5856 23.0606 64.5538 23.0601C64.2879 23.0564 64.0223 23.0379 63.7583 23.0047C63.4089 22.9573 63.0567 22.9341 62.7043 22.9354C62.3315 22.9335 61.9589 22.9566 61.5891 23.0047C61.2414 23.0451 60.8918 23.066 60.5419 23.067C60.5088 23.0779 60.4731 23.0778 60.44 23.0665C60.407 23.0553 60.3784 23.0337 60.3583 23.0047C60.324 22.9536 60.3051 22.8934 60.3039 22.8316C60.3024 22.765 60.3214 22.6996 60.3583 22.6446C60.3758 22.6172 60.3988 22.5938 60.4257 22.5759C60.4527 22.558 60.483 22.546 60.5147 22.5407C60.7637 22.5207 61.0087 22.4647 61.2423 22.3745C61.3952 22.3188 61.5263 22.2144 61.6163 22.0768C61.6977 21.933 61.7443 21.7716 61.7523 21.6059C61.7523 21.4189 61.7523 21.1835 61.7523 20.9134V17.9497C61.7523 17.4304 61.7523 17.008 61.7183 16.6963C61.7103 16.4567 61.6547 16.2211 61.5551 16.0039C61.4774 15.8464 61.3436 15.7251 61.1811 15.6646C60.959 15.596 60.7315 15.5473 60.5011 15.5192C60.467 15.5145 60.4351 15.4994 60.4096 15.4759C60.3841 15.4525 60.3662 15.4217 60.3583 15.3876C60.3242 15.3338 60.3053 15.2715 60.3039 15.2075C60.3083 15.1484 60.327 15.0913 60.3583 15.0414C60.3735 15.013 60.3962 14.9895 60.4239 14.9736C60.4515 14.9577 60.483 14.95 60.5147 14.9513L60.9567 14.9098L61.5007 14.8682C61.6911 14.8682 61.8815 14.8267 62.0787 14.7921C62.2759 14.7574 62.4527 14.7297 62.6091 14.6951L62.9219 14.612C62.9802 14.5861 63.0421 14.5698 63.1055 14.5636C63.1594 14.5561 63.2143 14.5646 63.2637 14.5879C63.3131 14.6112 63.3549 14.6484 63.3843 14.6951C63.4218 14.7679 63.4427 14.8484 63.4455 14.9306L63.4659 20.768ZM62.5207 12.7147C62.239 12.7191 61.9656 12.6181 61.7523 12.4308C61.6509 12.3477 61.5693 12.2421 61.514 12.1221C61.4586 12.0021 61.4308 11.8709 61.4327 11.7383C61.4337 11.6076 61.4614 11.4785 61.5141 11.3593C61.5668 11.2401 61.6433 11.1333 61.7387 11.0458C61.8381 10.9491 61.9555 10.8736 62.0839 10.8237C62.2123 10.7737 62.3493 10.7504 62.4867 10.755C62.6147 10.7543 62.7414 10.7811 62.8585 10.8336C62.9757 10.8861 63.0807 10.9631 63.1667 11.0597C63.3456 11.2441 63.4458 11.4929 63.4455 11.7522C63.4493 11.8798 63.4278 12.007 63.3822 12.1259C63.3367 12.2449 63.268 12.3533 63.1803 12.4446C63.092 12.5368 62.9861 12.6095 62.8692 12.6583C62.7522 12.7071 62.6267 12.731 62.5003 12.7285" fill="#D4D4D4"/>
<path d="M71.3606 14.7297C71.3171 14.8914 71.283 15.0556 71.2586 15.2214C71.2308 15.4256 71.2171 15.6315 71.2178 15.8377C71.2178 16.0731 71.2178 16.3086 71.2178 16.5301C71.2178 16.7517 71.2178 16.9733 71.2178 17.1049C71.2178 17.2365 71.2178 17.1672 71.143 17.1949C71.094 17.2203 71.0411 17.2367 70.9866 17.2434C70.9327 17.2544 70.8773 17.2544 70.8234 17.2434C70.8038 17.2365 70.7858 17.2256 70.7706 17.2113C70.7554 17.197 70.7433 17.1796 70.735 17.1603C70.6487 16.6191 70.4288 16.1092 70.0958 15.6784C69.9078 15.4912 69.6822 15.3478 69.4345 15.2582C69.1867 15.1685 68.9228 15.1347 68.661 15.1591C68.271 15.1427 67.8872 15.2624 67.573 15.4984C67.4348 15.6013 67.3234 15.7372 67.2488 15.8941C67.1741 16.0511 67.1383 16.2243 67.1446 16.3986C67.1453 16.5351 67.1785 16.6693 67.2412 16.7899C67.304 16.9105 67.3945 17.0138 67.505 17.091C67.8186 17.3074 68.1594 17.4798 68.5182 17.6035L69.1166 17.832L69.681 18.0605C69.987 18.2059 70.2794 18.3582 70.5446 18.5106C70.7944 18.6636 71.0231 18.8499 71.2246 19.0646C71.4167 19.268 71.5752 19.5019 71.6938 19.757C71.81 20.0519 71.8677 20.3672 71.8638 20.6849C71.8781 21.0902 71.7791 21.4912 71.5782 21.8413C71.3926 22.1425 71.1413 22.3961 70.8438 22.5823C70.5291 22.7766 70.1842 22.9148 69.8238 22.9908C69.456 23.0782 69.0795 23.1223 68.7018 23.1224C68.3546 23.1197 68.0084 23.0826 67.6682 23.0116C67.3229 22.9535 66.9867 22.8487 66.6686 22.7C66.6305 22.69 66.5907 22.6885 66.552 22.6957C66.5132 22.7028 66.4765 22.7185 66.4442 22.7415C66.4009 22.7727 66.3645 22.8129 66.3375 22.8594C66.3105 22.906 66.2936 22.9579 66.2879 23.0116C66.2879 23.0116 66.2879 23.0739 66.2131 23.0878H66.0431C65.996 23.0977 65.9474 23.0977 65.9003 23.0878C65.8527 23.0878 65.8255 23.0462 65.8255 23.0047C65.8298 22.8726 65.8411 22.7408 65.8595 22.61C65.8851 22.4543 65.8987 22.2969 65.9003 22.1391C65.9003 21.9867 65.9003 21.8275 65.9003 21.6544C65.9003 21.4813 65.9003 21.3081 65.8459 21.135C65.7915 20.9619 65.8459 20.8165 65.7983 20.678C65.7929 20.5811 65.7929 20.484 65.7983 20.3872C65.797 20.3647 65.803 20.3424 65.8152 20.3237C65.8275 20.3049 65.8454 20.2908 65.8663 20.2833C65.9168 20.2558 65.9724 20.2393 66.0295 20.2348C66.0853 20.2207 66.1436 20.2207 66.1995 20.2348C66.2229 20.2397 66.2444 20.2515 66.2613 20.2688C66.2782 20.286 66.2898 20.3079 66.2946 20.3318C66.3658 20.6526 66.473 20.9639 66.6142 21.2597C66.7353 21.5203 66.9038 21.7553 67.1106 21.9521C67.3047 22.138 67.537 22.2776 67.7906 22.3607C68.1172 22.4589 68.4566 22.5056 68.797 22.4992C69.178 22.5169 69.5517 22.3884 69.8442 22.1391C69.9799 22.008 70.0861 21.8485 70.1554 21.6716C70.2247 21.4946 70.2554 21.3045 70.2454 21.1142C70.2441 20.9442 70.2049 20.7766 70.1307 20.6243C70.0565 20.4719 69.9492 20.3387 69.817 20.2348C69.5304 19.9983 69.215 19.8005 68.8786 19.6462L68.3686 19.4246L67.8382 19.1823C67.5798 19.0761 67.3214 18.9653 67.063 18.8499C66.8168 18.7417 66.5877 18.597 66.3831 18.4206C66.1834 18.2451 66.0233 18.0278 65.9139 17.7835C65.7857 17.4872 65.7253 17.1652 65.7371 16.8417C65.7243 16.4538 65.8185 16.07 66.0091 15.7338C66.1776 15.4375 66.4101 15.1841 66.689 14.9929C66.9884 14.8022 67.3171 14.6641 67.6614 14.5843C68.0071 14.5029 68.3606 14.4611 68.7154 14.4597C69.0141 14.4557 69.3118 14.4954 69.5994 14.5774C69.901 14.6765 70.1871 14.8187 70.4494 14.9998C70.4789 15.015 70.5115 15.0229 70.5446 15.0229C70.5777 15.0229 70.6103 15.015 70.6398 14.9998C70.7146 14.9998 70.7758 14.8682 70.8234 14.702C70.8293 14.677 70.8432 14.6546 70.8629 14.6383C70.8825 14.6221 70.9069 14.6128 70.9322 14.612C70.9909 14.6052 71.0503 14.6052 71.109 14.612C71.1661 14.6165 71.2217 14.633 71.2722 14.6605C71.3198 14.6605 71.3402 14.7159 71.3266 14.7505" fill="#D4D4D4"/>
<path d="M87.286 18.566C87.2977 19.2347 87.1941 19.9003 86.98 20.5326C86.7994 21.0694 86.5045 21.5588 86.1164 21.966C85.733 22.3602 85.2685 22.6629 84.7564 22.8523C84.1933 23.0555 83.5995 23.1563 83.0021 23.1501C82.4679 23.1559 81.9374 23.0596 81.4381 22.8662C80.9699 22.6873 80.5486 22.4005 80.2073 22.0283C79.8416 21.6299 79.5613 21.1582 79.3845 20.6434C79.1683 20.0045 79.0647 19.3317 79.0785 18.656C79.0744 18.0679 79.1829 17.4845 79.3981 16.9387C79.5869 16.4439 79.8766 15.9954 80.2481 15.623C80.6264 15.2457 81.0781 14.9532 81.5741 14.7644C82.1083 14.558 82.6755 14.4547 83.2469 14.4597C83.7976 14.4537 84.3452 14.5451 84.8652 14.7298C85.3399 14.9012 85.7749 15.1698 86.1436 15.5192C86.5111 15.8814 86.7965 16.321 86.98 16.8071C87.1936 17.3675 87.2975 17.965 87.286 18.566ZM85.4092 18.7668C85.4112 18.3174 85.3816 17.8685 85.3208 17.4234C85.2682 17.0223 85.1607 16.6308 85.0012 16.2601C84.8581 15.9359 84.6357 15.6546 84.3552 15.443C84.047 15.2243 83.6766 15.1148 83.3013 15.1314C82.8936 15.1118 82.49 15.2206 82.1453 15.443C81.8515 15.6521 81.6169 15.9363 81.4653 16.267C81.2746 16.6429 81.1438 17.0473 81.0777 17.465C81.0135 17.9237 80.9817 18.3865 80.9825 18.8499C80.9823 19.2762 81.0118 19.702 81.0709 20.124C81.1223 20.5345 81.2371 20.9341 81.4109 21.3081C81.5675 21.6491 81.8004 21.9479 82.0909 22.1806C82.414 22.4202 82.8067 22.5421 83.2061 22.5269C83.607 22.546 84.0032 22.4318 84.3348 22.2014C84.6296 21.9788 84.8636 21.6833 85.0148 21.3428C85.1826 20.9655 85.2905 20.5635 85.3344 20.1517C85.3889 19.7084 85.4162 19.2621 85.416 18.8153" fill="#D4D4D4"/>
<path d="M89.3192 14.8267C89.3192 14.3004 89.3192 11.7591 89.3192 11.4544C89.3192 11.1497 89.3192 9.74403 89.3192 9.32855C89.3192 8.91308 90.312 8.33141 90.6112 7.83283C90.7744 7.78436 90.89 7.79128 90.9444 7.83283C90.9898 7.89467 91.0222 7.96539 91.0396 8.04057V20.768C91.0396 21.0727 91.0396 21.322 91.0396 21.5297C91.0416 21.7086 91.0859 21.8844 91.1687 22.0422C91.258 22.182 91.3891 22.2889 91.5427 22.3469C91.7763 22.437 92.0213 22.493 92.2703 22.513C92.3016 22.5171 92.3317 22.5278 92.3587 22.5445C92.3856 22.5612 92.4088 22.5835 92.4267 22.61C92.466 22.6665 92.4851 22.7348 92.4811 22.8039C92.4832 22.8662 92.464 22.9274 92.4267 22.977C92.4101 23.0036 92.3869 23.0252 92.3594 23.0398C92.332 23.0544 92.3013 23.0614 92.2703 23.0601C91.9409 23.061 91.6117 23.0425 91.2844 23.0047C90.9301 22.9609 90.5736 22.9378 90.2168 22.9354C89.8395 22.9373 89.4627 22.9604 89.088 23.0047C88.7154 23.0465 88.3408 23.0673 87.966 23.067C87.9371 23.0673 87.9086 23.0597 87.8836 23.0451C87.8585 23.0305 87.8376 23.0094 87.8232 22.9839C87.786 22.9343 87.7667 22.8732 87.7688 22.8108C87.7648 22.7418 87.784 22.6734 87.8232 22.6169C87.8411 22.5905 87.8643 22.5682 87.8912 22.5515C87.9182 22.5348 87.9483 22.524 87.9796 22.52C88.2463 22.4998 88.5092 22.4439 88.7616 22.3538C88.921 22.3002 89.0593 22.1958 89.156 22.056C89.2477 21.9162 89.2995 21.7532 89.3056 21.5851C89.3056 21.3982 89.3056 21.1627 89.3056 20.8927L89.3192 14.8267Z" fill="#D4D4D4"/>
<path d="M120.728 18.566C120.74 19.2347 120.636 19.9003 120.422 20.5326C120.239 21.0681 119.944 21.557 119.558 21.966C119.175 22.3602 118.71 22.6629 118.198 22.8523C117.635 23.0548 117.041 23.1555 116.444 23.1501C115.914 23.1542 115.389 23.0579 114.894 22.8662C114.425 22.6872 114.004 22.4005 113.663 22.0283C113.297 21.6299 113.017 21.1582 112.84 20.6434C112.624 20.0045 112.52 19.3317 112.534 18.656C112.527 18.0734 112.631 17.495 112.84 16.9526C113.029 16.4577 113.319 16.0093 113.69 15.6369C114.064 15.2612 114.511 14.9688 115.002 14.7782C115.537 14.5718 116.104 14.4685 116.675 14.4735C117.226 14.4675 117.774 14.5589 118.294 14.7436C118.768 14.915 119.203 15.1837 119.572 15.533C119.937 15.8971 120.222 16.3361 120.408 16.821C120.622 17.3814 120.726 17.9788 120.714 18.5798L120.728 18.566ZM118.838 18.7807C118.84 18.3313 118.81 17.8824 118.749 17.4373C118.697 17.0362 118.589 16.6446 118.43 16.2739C118.277 15.9457 118.043 15.664 117.75 15.4568C117.441 15.2381 117.071 15.1286 116.696 15.1452C116.288 15.1257 115.884 15.2345 115.54 15.4568C115.246 15.6659 115.011 15.9501 114.86 16.2809C114.681 16.6497 114.56 17.0445 114.499 17.4511C114.435 17.9099 114.403 18.3727 114.404 18.836C114.404 19.2624 114.433 19.6881 114.492 20.1102C114.544 20.5206 114.659 20.9203 114.832 21.2943C114.987 21.6366 115.22 21.9359 115.512 22.1668C115.835 22.4073 116.228 22.5293 116.628 22.513C117.028 22.5311 117.424 22.417 117.756 22.1876C118.049 21.963 118.283 21.668 118.436 21.3289C118.604 20.9516 118.712 20.5496 118.756 20.1379C118.81 19.6946 118.838 19.2482 118.838 18.8014" fill="#D4D4D4"/>
<path d="M127.582 14.7297C127.542 14.8917 127.51 15.0558 127.487 15.2214C127.454 15.425 127.438 15.6312 127.44 15.8377C127.44 16.0731 127.44 16.3086 127.44 16.5301C127.44 16.7517 127.44 16.9733 127.44 17.1049C127.44 17.2365 127.44 17.1672 127.372 17.1949C127.32 17.2193 127.265 17.2356 127.208 17.2434C127.157 17.2548 127.104 17.2548 127.052 17.2434C127.031 17.2374 127.012 17.2268 126.995 17.2125C126.979 17.1981 126.966 17.1803 126.957 17.1603C126.873 16.6183 126.653 16.1076 126.318 15.6784C126.131 15.4918 125.906 15.3487 125.66 15.259C125.413 15.1693 125.15 15.1352 124.89 15.1591C124.499 15.1415 124.115 15.2614 123.802 15.4984C123.663 15.6013 123.552 15.7372 123.477 15.8942C123.403 16.0511 123.367 16.2243 123.373 16.3986C123.373 16.5346 123.404 16.6687 123.466 16.7893C123.528 16.9099 123.617 17.0135 123.727 17.091C124.022 17.2862 124.34 17.4443 124.672 17.5619L125.27 17.7904L125.835 18.0189C126.148 18.1644 126.433 18.3167 126.698 18.469C126.949 18.6208 127.178 18.8072 127.378 19.023C127.568 19.2268 127.725 19.4606 127.841 19.7155C127.96 20.0094 128.018 20.3254 128.011 20.6434C128.025 21.0486 127.926 21.4497 127.725 21.7998C127.54 22.101 127.288 22.3545 126.991 22.5407C126.679 22.7351 126.336 22.8733 125.978 22.9493C125.607 23.0366 125.229 23.0808 124.849 23.0808C124.502 23.0776 124.156 23.0405 123.815 22.9701C123.47 22.912 123.134 22.8072 122.816 22.6584C122.778 22.6484 122.738 22.6469 122.699 22.6541C122.66 22.6613 122.623 22.6769 122.591 22.7C122.549 22.7315 122.513 22.7719 122.488 22.8185C122.462 22.8651 122.446 22.9168 122.442 22.9701C122.442 22.9701 122.442 23.0324 122.36 23.0462H122.19C122.143 23.0561 122.094 23.0561 122.047 23.0462C122 23.0462 121.972 23.0047 121.972 22.9631C121.976 22.8307 121.99 22.6988 122.013 22.5684C122.034 22.4123 122.045 22.255 122.047 22.0975C122.057 21.9361 122.057 21.7742 122.047 21.6128C122.047 21.4397 122.047 21.2666 121.993 21.0935C121.938 20.9204 121.959 20.7749 121.952 20.6365C121.945 20.498 121.952 20.4079 121.952 20.3456C121.952 20.3234 121.958 20.3015 121.97 20.283C121.982 20.2645 122 20.2501 122.02 20.2417C122.071 20.2143 122.126 20.1978 122.183 20.1933C122.239 20.1792 122.297 20.1792 122.353 20.1933C122.377 20.1973 122.399 20.2088 122.416 20.2262C122.433 20.2436 122.445 20.266 122.448 20.2902C122.522 20.6113 122.631 20.9227 122.775 21.2181C122.891 21.4799 123.058 21.7153 123.264 21.9106C123.459 22.0952 123.691 22.2346 123.944 22.3191C124.271 22.4163 124.61 22.463 124.951 22.4576C125.332 22.476 125.706 22.3475 125.998 22.0975C126.134 21.9665 126.24 21.807 126.309 21.63C126.378 21.4531 126.409 21.2629 126.399 21.0727C126.406 20.8991 126.374 20.7262 126.304 20.5676C126.235 20.409 126.13 20.269 125.998 20.1587C125.714 19.9191 125.398 19.721 125.06 19.5701C124.89 19.4939 124.726 19.4177 124.55 19.3485L124.026 19.1269C123.763 19.0207 123.505 18.9099 123.251 18.7945C123.005 18.6863 122.776 18.5416 122.571 18.3652C122.369 18.1902 122.207 17.9729 122.095 17.7281C121.97 17.4309 121.909 17.1096 121.918 16.7864C121.907 16.3978 122.004 16.0139 122.197 15.6784C122.375 15.3783 122.62 15.1246 122.911 14.9375C123.21 14.7457 123.539 14.6075 123.883 14.5289C124.229 14.4469 124.582 14.4051 124.937 14.4043C125.236 14.4009 125.533 14.4405 125.821 14.522C126.12 14.6224 126.404 14.7645 126.664 14.9444C126.694 14.9596 126.727 14.9675 126.76 14.9675C126.793 14.9675 126.825 14.9596 126.855 14.9444C126.93 14.9444 126.991 14.8128 127.045 14.6466C127.049 14.6216 127.061 14.5986 127.079 14.582C127.098 14.5654 127.122 14.5564 127.147 14.5566C127.208 14.5498 127.27 14.5498 127.331 14.5566C127.386 14.5622 127.439 14.5787 127.487 14.6051C127.535 14.6051 127.555 14.6605 127.542 14.6951" fill="#D4D4D4"/>
<path d="M130.187 18.5868C130.187 17.9913 130.187 17.4996 130.187 17.1049C130.18 16.7877 130.13 16.4729 130.037 16.1701C130.01 16.066 129.963 15.9683 129.899 15.8828C129.835 15.7972 129.755 15.7254 129.663 15.6715C129.441 15.5532 129.193 15.4914 128.942 15.4915C128.913 15.4923 128.885 15.4841 128.861 15.468C128.836 15.452 128.817 15.4287 128.806 15.4014C128.779 15.3455 128.765 15.2838 128.766 15.2214C128.763 15.1595 128.775 15.0979 128.8 15.0414C128.8 14.979 128.861 14.9513 128.908 14.9513L129.942 14.8336C130.363 14.7794 130.78 14.7032 131.193 14.6051C131.317 14.5629 131.45 14.5629 131.574 14.6051C131.662 14.6051 131.724 14.7436 131.744 14.9098L131.819 15.8792C131.819 15.9139 131.819 15.9208 131.873 15.8792C132.12 15.4689 132.458 15.1228 132.859 14.8683C133.329 14.5761 133.873 14.4294 134.423 14.4458C134.897 14.4317 135.366 14.5383 135.789 14.756C136.212 14.9737 136.574 15.2955 136.844 15.6923C137.119 16.0916 137.324 16.5369 137.449 17.008C137.586 17.5108 137.654 18.0304 137.653 18.5522C137.659 19.1696 137.569 19.7841 137.388 20.3733C137.223 20.9026 136.962 21.3958 136.619 21.8275C136.287 22.2461 135.864 22.5817 135.385 22.8085C134.905 23.0353 134.381 23.1475 133.852 23.1363C133.524 23.1397 133.196 23.1119 132.873 23.0532C132.582 22.9965 132.296 22.9202 132.016 22.8246C131.955 22.8246 131.921 22.8246 131.907 22.8246C131.896 22.8841 131.896 22.9452 131.907 23.0047V25.7745C131.907 26.0792 131.907 27.2564 131.907 27.4641C131.918 27.6474 131.976 27.8243 132.077 27.9766C132.192 28.1233 132.349 28.2298 132.526 28.2813C132.808 28.3742 133.1 28.4301 133.396 28.4474C133.428 28.4519 133.459 28.4635 133.486 28.4814C133.513 28.4994 133.536 28.5233 133.553 28.5513C133.579 28.6027 133.593 28.6596 133.594 28.7175C133.598 28.7865 133.578 28.8549 133.539 28.9114C133.525 28.9369 133.504 28.958 133.479 28.9726C133.454 28.9872 133.425 28.9948 133.396 28.9945C132.958 28.9993 132.52 28.9785 132.084 28.9322C131.744 28.8845 131.401 28.8614 131.057 28.8629C130.693 28.8623 130.33 28.8854 129.969 28.9322C129.597 28.974 129.222 28.9948 128.847 28.9945C128.818 28.9948 128.79 28.9872 128.765 28.9726C128.74 28.958 128.719 28.9369 128.704 28.9114C128.668 28.8535 128.649 28.7861 128.65 28.7175C128.652 28.658 128.671 28.6004 128.704 28.5513C128.722 28.5239 128.745 28.5005 128.772 28.4826C128.799 28.4647 128.829 28.4527 128.861 28.4474C129.128 28.4288 129.391 28.3729 129.643 28.2813C129.804 28.2281 129.945 28.1238 130.044 27.9835C130.131 27.8417 130.18 27.6795 130.187 27.5126C130.187 27.3257 130.187 26.1277 130.187 25.8853V18.5868ZM131.866 20.9827C131.878 21.1228 131.923 21.258 131.996 21.3774C132.088 21.5544 132.21 21.7137 132.356 21.8483C132.534 22.0095 132.733 22.1447 132.948 22.2499C133.196 22.3703 133.468 22.4296 133.743 22.423C134.079 22.4331 134.408 22.3309 134.681 22.1322C134.951 21.9202 135.166 21.6445 135.307 21.3289C135.474 20.954 135.59 20.5581 135.654 20.1517C135.727 19.6939 135.764 19.2307 135.763 18.7668C135.809 17.9709 135.667 17.1752 135.348 16.4471C135.219 16.1981 135.022 15.9924 134.78 15.8548C134.539 15.7172 134.264 15.6536 133.988 15.6715C133.697 15.6696 133.409 15.7236 133.138 15.8308C132.89 15.9233 132.66 16.0592 132.458 16.2324C132.276 16.3919 132.128 16.5875 132.023 16.8071C131.917 17.022 131.861 17.2591 131.86 17.4996L131.866 20.9827Z" fill="#D4D4D4"/>
<path d="M141.651 20.768C141.651 21.0727 141.651 21.322 141.651 21.5297C141.657 21.7073 141.699 21.8817 141.774 22.0422C141.85 22.1775 141.967 22.2843 142.107 22.3468C142.308 22.4365 142.521 22.4926 142.739 22.513C142.805 22.525 142.863 22.5622 142.902 22.6169C142.934 22.6716 142.95 22.7337 142.95 22.7969C142.95 22.8601 142.934 22.9222 142.902 22.977C142.884 23.0032 142.859 23.0244 142.831 23.0389C142.802 23.0534 142.771 23.0606 142.739 23.0601C142.478 23.0559 142.217 23.0374 141.957 23.0047C141.608 22.9573 141.256 22.9341 140.903 22.9354C140.53 22.9335 140.158 22.9566 139.788 23.0047C139.44 23.0452 139.091 23.066 138.741 23.067C138.708 23.0779 138.672 23.0778 138.639 23.0665C138.606 23.0553 138.577 23.0337 138.557 23.0047C138.523 22.9536 138.504 22.8934 138.503 22.8316C138.501 22.765 138.52 22.6996 138.557 22.6446C138.575 22.6172 138.598 22.5938 138.625 22.5759C138.652 22.558 138.682 22.546 138.714 22.5407C138.963 22.5207 139.208 22.4647 139.441 22.3745C139.594 22.3188 139.725 22.2144 139.815 22.0768C139.897 21.933 139.943 21.7716 139.951 21.6059C139.951 21.4189 139.951 21.1835 139.951 20.9134V17.9497C139.951 17.4304 139.951 17.008 139.917 16.6963C139.909 16.4567 139.854 16.2211 139.754 16.0039C139.676 15.8464 139.543 15.7251 139.38 15.6646C139.158 15.5967 138.93 15.5481 138.7 15.5192C138.666 15.5145 138.634 15.4994 138.609 15.476C138.583 15.4525 138.565 15.4217 138.557 15.3876C138.523 15.3339 138.504 15.2715 138.503 15.2075C138.505 15.1437 138.524 15.0815 138.557 15.0275C138.573 14.9991 138.595 14.9757 138.623 14.9597C138.651 14.9438 138.682 14.9361 138.714 14.9375L139.156 14.8959L139.7 14.8544C139.89 14.8544 140.081 14.8128 140.278 14.7782C140.475 14.7436 140.652 14.7159 140.808 14.6813L141.121 14.5982C141.179 14.5723 141.241 14.5559 141.304 14.5497C141.358 14.5423 141.413 14.5508 141.463 14.5741C141.512 14.5974 141.554 14.6346 141.583 14.6813C141.621 14.7541 141.642 14.8346 141.644 14.9167L141.651 20.768ZM140.706 12.7147C140.424 12.7191 140.151 12.6181 139.938 12.4308C139.836 12.3477 139.755 12.2421 139.699 12.1221C139.644 12.0021 139.616 11.8709 139.618 11.7383C139.619 11.6083 139.647 11.4799 139.698 11.3609C139.75 11.2419 139.824 11.1347 139.917 11.0459C140.122 10.8521 140.393 10.7477 140.672 10.755C140.8 10.7543 140.927 10.7811 141.044 10.8336C141.161 10.8861 141.266 10.9631 141.352 11.0597C141.531 11.2441 141.631 11.4929 141.631 11.7522C141.635 11.8798 141.613 12.007 141.568 12.1259C141.522 12.2449 141.453 12.3533 141.366 12.4446C141.277 12.5368 141.172 12.6095 141.055 12.6583C140.938 12.7072 140.812 12.7311 140.686 12.7285" fill="#D4D4D4"/>
<path d="M145.867 18.5106C145.867 18.9563 145.919 19.4004 146.024 19.8332C146.124 20.2295 146.292 20.6046 146.52 20.9412C146.738 21.2593 147.027 21.5203 147.363 21.7029C147.751 21.9008 148.181 21.9983 148.614 21.9868C149.025 21.9872 149.434 21.9524 149.838 21.8829C150.211 21.831 150.561 21.6698 150.845 21.419C150.865 21.3962 150.891 21.38 150.92 21.3726C150.949 21.3652 150.98 21.3669 151.008 21.3774C151.068 21.3962 151.123 21.4268 151.171 21.4674C151.215 21.5091 151.248 21.5616 151.266 21.6198C151.28 21.6454 151.286 21.6739 151.286 21.7029C151.286 21.7318 151.28 21.7603 151.266 21.786C150.929 22.2762 150.456 22.6524 149.906 22.8662C149.308 23.0662 148.68 23.1622 148.05 23.1501C147.566 23.1477 147.085 23.0731 146.622 22.9285C146.146 22.7926 145.704 22.5567 145.323 22.2361C144.913 21.8526 144.595 21.3789 144.392 20.8511C144.138 20.1898 144.015 19.4837 144.031 18.7737C144.031 18.202 144.13 17.6346 144.324 17.098C144.507 16.5782 144.799 16.1055 145.181 15.7131C145.571 15.3212 146.033 15.0107 146.541 14.799C147.144 14.5668 147.786 14.454 148.431 14.4666C148.772 14.4658 149.113 14.5077 149.444 14.5913C149.753 14.6661 150.047 14.7924 150.314 14.9652C150.561 15.1212 150.772 15.3289 150.933 15.5746C151.088 15.8176 151.169 16.102 151.164 16.3917C151.162 16.6161 151.085 16.8331 150.947 17.008C150.865 17.1092 150.761 17.1886 150.642 17.2393C150.524 17.29 150.395 17.3104 150.267 17.2988C150.044 17.3102 149.824 17.2389 149.648 17.098C149.567 17.0278 149.503 16.9393 149.462 16.8394C149.421 16.7396 149.403 16.6313 149.41 16.5232C149.402 16.37 149.45 16.2192 149.546 16.1008C149.622 16.0143 149.667 15.9047 149.675 15.7892C149.675 15.5769 149.532 15.4107 149.247 15.2907C148.945 15.1743 148.625 15.1156 148.302 15.1175C147.904 15.103 147.51 15.2038 147.166 15.4084C146.862 15.6051 146.606 15.8705 146.418 16.1839C146.215 16.5177 146.072 16.8859 145.997 17.2711C145.915 17.6813 145.874 18.0989 145.874 18.5175" fill="#D4D4D4"/>
<path d="M154.197 18.3306C154.134 18.3306 154.1 18.3513 154.095 18.3929C154.091 18.4459 154.091 18.4991 154.095 18.5521C154.084 19.0928 154.152 19.632 154.299 20.1517C154.411 20.5434 154.606 20.9052 154.87 21.2112C155.109 21.4817 155.411 21.6865 155.747 21.8067C156.1 21.9273 156.47 21.9882 156.842 21.9868C157.239 21.9878 157.635 21.953 158.025 21.8829C158.385 21.8267 158.723 21.6737 159.005 21.4397C159.03 21.4163 159.061 21.3991 159.094 21.3895C159.127 21.3799 159.161 21.3781 159.195 21.3843C159.256 21.3959 159.31 21.4276 159.351 21.4743C159.392 21.522 159.42 21.5791 159.433 21.6405C159.44 21.6691 159.44 21.6988 159.434 21.7275C159.428 21.7562 159.416 21.7832 159.399 21.8067C159.072 22.2698 158.628 22.6336 158.114 22.8593C157.548 23.0693 156.948 23.1679 156.346 23.1501C155.715 23.1641 155.086 23.0536 154.496 22.8246C154.004 22.6221 153.565 22.3069 153.211 21.9037C152.867 21.5022 152.612 21.0298 152.463 20.5187C152.295 19.9625 152.213 19.3833 152.218 18.8014C152.217 18.2245 152.318 17.652 152.518 17.1118C152.699 16.6052 152.978 16.1404 153.337 15.7445C153.697 15.3487 154.13 15.0296 154.612 14.8059C155.122 14.5686 155.677 14.4504 156.237 14.4597C156.703 14.4515 157.166 14.5411 157.597 14.7228C157.99 14.8759 158.347 15.1119 158.644 15.4153C158.939 15.7362 159.17 16.1125 159.324 16.5232C159.487 16.9659 159.568 17.4355 159.562 17.9082C159.562 18.1644 159.474 18.289 159.297 18.289L154.197 18.3306ZM157.461 17.6935C157.631 17.6935 157.726 17.6312 157.747 17.5135C157.776 17.37 157.789 17.2237 157.787 17.0772C157.787 16.8279 157.748 16.5801 157.672 16.3432C157.598 16.1148 157.485 15.9014 157.339 15.7131C157.197 15.5333 157.022 15.3848 156.822 15.2768C156.612 15.1662 156.378 15.1092 156.142 15.1106C155.856 15.1053 155.573 15.1644 155.312 15.2837C155.089 15.3942 154.89 15.5497 154.727 15.7408C154.558 15.9419 154.432 16.1782 154.36 16.4332C154.273 16.6912 154.213 16.9583 154.183 17.2295C154.169 17.3468 154.169 17.4655 154.183 17.5827C154.183 17.6796 154.183 17.7212 154.258 17.7212L157.461 17.6935Z" fill="#D4D4D4"/>
<path d="M39.877 27.4157C39.8641 27.2287 39.8886 27.041 39.949 26.8639C40.0094 26.6869 40.1045 26.5241 40.2284 26.3856C40.3524 26.247 40.5027 26.1356 40.6702 26.0579C40.8378 25.9802 41.019 25.938 41.203 25.9338C41.3855 25.9385 41.5651 25.9816 41.7303 26.0606C41.8956 26.1395 42.0429 26.2525 42.1631 26.3925C42.2833 26.5324 42.3736 26.6962 42.4284 26.8735C42.4832 27.0508 42.5012 27.2378 42.4814 27.4226V27.5334H40.1626C40.1644 27.8292 40.2801 28.1124 40.4848 28.3222C40.6896 28.532 40.967 28.6516 41.2574 28.6552C41.44 28.6568 41.6206 28.6173 41.7863 28.5395C41.9521 28.4616 42.0989 28.3475 42.2162 28.2051L42.3998 28.3782C42.2585 28.5494 42.0813 28.6862 41.8813 28.7785C41.6812 28.8708 41.4634 28.9162 41.2438 28.9114C41.0569 28.9119 40.872 28.8731 40.7004 28.7975C40.5289 28.7219 40.3745 28.6112 40.2469 28.4721C40.1193 28.333 40.0212 28.1687 39.9587 27.9893C39.8963 27.8099 39.8708 27.6194 39.8838 27.4295L39.877 27.4157ZM42.2026 27.2841C42.2081 27.1444 42.1863 27.0049 42.1386 26.8738C42.0909 26.7427 42.0181 26.6225 41.9246 26.5202C41.831 26.4178 41.7185 26.3353 41.5935 26.2775C41.4685 26.2196 41.3335 26.1875 41.1962 26.1831C40.919 26.1973 40.6578 26.3196 40.4666 26.5245C40.2755 26.7295 40.1691 27.0014 40.1694 27.2841H42.2026Z" fill="#D4D4D4"/>
<path d="M43.5421 25.9823H43.8073V26.467C43.8946 26.2924 44.0281 26.1461 44.1927 26.0445C44.3573 25.943 44.5465 25.8902 44.7389 25.8923C44.9378 25.8881 45.1335 25.9437 45.3015 26.0521C45.4696 26.1604 45.6027 26.3168 45.6841 26.5016C45.7786 26.314 45.9232 26.1573 46.1012 26.0495C46.2792 25.9417 46.4834 25.8872 46.6904 25.8923C46.8405 25.8873 46.9899 25.9154 47.1284 25.9744C47.2669 26.0334 47.3913 26.1221 47.4932 26.2344C47.5951 26.3467 47.6721 26.48 47.719 26.6253C47.7659 26.7706 47.7815 26.9244 47.7648 27.0764V28.8006H47.4996V27.1595C47.4996 26.5432 47.1868 26.19 46.6701 26.19C46.5458 26.1924 46.4234 26.2207 46.3104 26.2734C46.1974 26.326 46.0963 26.4018 46.0134 26.496C45.9304 26.5903 45.8674 26.7009 45.8283 26.821C45.7892 26.9411 45.7748 27.0681 45.7861 27.1941V28.8491H45.5209V27.1595C45.5209 26.5639 45.2013 26.2039 44.7049 26.2039C44.4631 26.2146 44.2348 26.32 44.0676 26.498C43.9003 26.6761 43.8071 26.9131 43.8073 27.1595V28.8006H43.5421V25.9823Z" fill="#D4D4D4"/>
<path d="M49.2881 28.8283H49.0229V24.7566H49.2881V26.6193C49.4056 26.412 49.5738 26.2393 49.7764 26.1179C49.979 25.9965 50.209 25.9307 50.444 25.9269C50.6303 25.9265 50.8147 25.965 50.9857 26.0402C51.1568 26.1154 51.3108 26.2255 51.4384 26.3638C51.5659 26.5021 51.6641 26.6656 51.727 26.8441C51.7899 27.0227 51.8161 27.2125 51.804 27.4018C51.8181 27.5922 51.7933 27.7835 51.7313 27.9638C51.6693 28.144 51.5714 28.3092 51.4436 28.449C51.3159 28.5888 51.1612 28.7002 50.9892 28.7762C50.8172 28.8522 50.6316 28.8911 50.444 28.8906C50.209 28.8868 49.979 28.8209 49.7764 28.6996C49.5738 28.5782 49.4056 28.4055 49.2881 28.1981V28.8283ZM51.5184 27.4226C51.5295 27.268 51.5096 27.1127 51.46 26.9662C51.4103 26.8197 51.3318 26.6851 51.2294 26.5704C51.127 26.4558 51.0028 26.3635 50.8642 26.2993C50.7257 26.2351 50.5758 26.2003 50.4236 26.1969C50.2698 26.1996 50.1179 26.2334 49.977 26.2963C49.836 26.3591 49.7087 26.4499 49.6024 26.5633C49.4962 26.6766 49.4131 26.8104 49.3579 26.9567C49.3028 27.103 49.2767 27.259 49.2813 27.4157C49.2767 27.5723 49.3028 27.7283 49.3579 27.8747C49.4131 28.021 49.4962 28.1547 49.6024 28.2681C49.7087 28.3814 49.836 28.4722 49.977 28.5351C50.1179 28.598 50.2698 28.6317 50.4236 28.6344C50.5758 28.635 50.7264 28.6033 50.8658 28.5413C51.0053 28.4793 51.1305 28.3884 51.2335 28.2744C51.3365 28.1603 51.415 28.0257 51.4641 27.8791C51.5132 27.7324 51.5317 27.5769 51.5184 27.4226Z" fill="#D4D4D4"/>
<path d="M52.9124 25.9823H53.1776V26.7924C53.2798 26.543 53.4514 26.3294 53.6713 26.1781C53.8912 26.0267 54.1498 25.9442 54.4152 25.9407V26.2385C54.2409 26.243 54.0696 26.2845 53.912 26.3604C53.7544 26.4363 53.6142 26.5449 53.5002 26.6792C53.3863 26.8134 53.3011 26.9705 53.2503 27.1403C53.1994 27.31 53.1839 27.4887 53.2048 27.6649V28.8283H52.9396L52.9124 25.9823Z" fill="#D4D4D4"/>
<path d="M55.0068 28.0043C55.0068 27.4157 55.51 27.0833 56.2308 27.0833C56.5429 27.0802 56.8539 27.1198 57.1556 27.201V27.0833C57.1651 26.9608 57.1473 26.8376 57.1036 26.7231C57.0599 26.6085 56.9914 26.5055 56.9032 26.4216C56.815 26.3378 56.7093 26.2753 56.5941 26.2388C56.4788 26.2023 56.357 26.1927 56.2376 26.2108C55.9314 26.214 55.6305 26.2924 55.3604 26.4393L55.2584 26.1969C55.5668 26.0398 55.9064 25.9569 56.2512 25.9546C56.4115 25.9438 56.5723 25.9658 56.7241 26.0193C56.876 26.0729 57.0157 26.1568 57.1352 26.2662C57.2336 26.3735 57.3096 26.5 57.3587 26.638C57.4078 26.7761 57.4289 26.9228 57.4208 27.0694V28.8421H57.1556V28.3713C57.0341 28.5428 56.8734 28.6817 56.6874 28.7758C56.5014 28.8699 56.2957 28.9164 56.088 28.9114C55.9591 28.9267 55.8286 28.9156 55.704 28.8788C55.5794 28.8419 55.4633 28.7801 55.3625 28.6968C55.2618 28.6136 55.1784 28.5106 55.1173 28.3941C55.0562 28.2775 55.0186 28.1497 55.0068 28.0181V28.0043ZM57.1624 27.7757V27.4572C56.8543 27.3717 56.5365 27.3275 56.2172 27.3256C55.6256 27.3256 55.2924 27.5957 55.2924 28.0181C55.2924 28.4267 55.68 28.669 56.1016 28.669C56.228 28.6824 56.3558 28.6703 56.4775 28.6333C56.5993 28.5964 56.7127 28.5353 56.8113 28.4536C56.9098 28.3719 56.9916 28.2712 57.0518 28.1572C57.1121 28.0433 57.1497 27.9184 57.1624 27.7896" fill="#D4D4D4"/>
<path d="M58.4612 27.4226C58.4503 27.1126 58.5361 26.807 58.7063 26.5498C58.8765 26.2925 59.1224 26.0968 59.4086 25.9907C59.6948 25.8845 60.0067 25.8735 60.2995 25.959C60.5923 26.0446 60.8509 26.2224 61.0383 26.467L60.8479 26.6678C60.7352 26.5255 60.5936 26.4098 60.4328 26.3285C60.272 26.2472 60.0958 26.2023 59.9163 26.1969C59.7633 26.2005 59.6126 26.235 59.4727 26.2983C59.3329 26.3617 59.2069 26.4527 59.1019 26.5661C58.9969 26.6795 58.915 26.8129 58.861 26.9588C58.8071 27.1046 58.7821 27.2599 58.7876 27.4157C58.783 27.5736 58.8092 27.7308 58.8646 27.8784C58.92 28.0259 59.0035 28.1609 59.1103 28.2754C59.2171 28.39 59.3451 28.4819 59.487 28.5459C59.6288 28.6099 59.7817 28.6447 59.9367 28.6482C60.1178 28.6425 60.2955 28.5968 60.4575 28.5143C60.6195 28.4318 60.762 28.3145 60.8751 28.1704L61.0587 28.3436C60.8739 28.5835 60.6199 28.7585 60.3324 28.8441C60.045 28.9297 59.7384 28.9215 59.4558 28.8207C59.1731 28.7199 58.9285 28.5316 58.7562 28.2821C58.5839 28.0326 58.4927 27.7345 58.4952 27.4295" fill="#D4D4D4"/>
<path d="M62.0651 24.8674H62.3983V25.2413H62.0651V24.8674ZM62.0651 25.9823H62.3983V28.8283H62.1263L62.0651 25.9823Z" fill="#D4D4D4"/>
<path d="M63.6971 25.9823H63.9623V26.5155C64.0587 26.3304 64.2041 26.1765 64.382 26.0713C64.5598 25.966 64.7631 25.9136 64.9687 25.9199C65.1206 25.9116 65.2724 25.9363 65.4141 25.9926C65.5558 26.0488 65.684 26.1352 65.7902 26.246C65.8965 26.3568 65.9782 26.4895 66.0301 26.6351C66.0819 26.7806 66.1026 26.9358 66.0907 27.0902V28.8283H65.7983V27.1594C65.8133 27.0344 65.8013 26.9075 65.7631 26.7877C65.725 26.6678 65.6616 26.5579 65.5774 26.4656C65.4933 26.3733 65.3903 26.3008 65.2758 26.2532C65.1612 26.2056 65.0379 26.184 64.9143 26.19C64.6624 26.1918 64.4213 26.2945 64.2431 26.4759C64.065 26.6574 63.9641 26.9029 63.9623 27.1594V28.8006H63.6971V25.9823Z" fill="#D4D4D4"/>
<path d="M67.2739 29.2992L67.4303 29.0776C67.751 29.3379 68.149 29.4795 68.5591 29.4792C68.7056 29.4929 68.8534 29.4737 68.9918 29.423C69.1303 29.3723 69.2562 29.2912 69.3606 29.1856C69.465 29.0799 69.5453 28.9523 69.596 28.8116C69.6467 28.6709 69.6664 28.5206 69.6539 28.3713V27.9627C69.5317 28.1689 69.3606 28.3404 69.1561 28.4614C68.9517 28.5824 68.7207 28.6491 68.4843 28.6552C68.1306 28.6553 67.7907 28.5151 67.5368 28.2643C67.2829 28.0135 67.1349 27.6718 67.1243 27.3118C67.1243 26.9445 67.2676 26.5922 67.5226 26.3325C67.7777 26.0728 68.1236 25.9269 68.4843 25.9269C68.7164 25.9226 68.9458 25.9788 69.1505 26.0904C69.3553 26.2019 69.5285 26.3649 69.6539 26.5639V25.9892H69.9191V28.399C69.9266 28.5753 69.8991 28.7515 69.8384 28.9168C69.7776 29.0822 69.6848 29.2334 69.5655 29.3615C69.2897 29.6186 68.926 29.7554 68.5523 29.7423C68.0906 29.7444 67.6412 29.591 67.2739 29.3061V29.2992ZM69.6675 27.2772C69.6614 27.1289 69.6266 26.9833 69.5652 26.8487C69.5037 26.7142 69.4168 26.5933 69.3095 26.4929C69.2021 26.3926 69.0764 26.3148 68.9394 26.264C68.8025 26.2132 68.6571 26.1904 68.5115 26.1969C68.3704 26.1902 68.2294 26.2132 68.0975 26.2645C67.9655 26.3158 67.8453 26.3942 67.7445 26.495C67.6436 26.5957 67.5643 26.7166 67.5114 26.85C67.4585 26.9834 67.4332 27.1264 67.4371 27.2702C67.4362 27.4145 67.4636 27.5574 67.5178 27.6906C67.572 27.8239 67.6518 27.9447 67.7525 28.046C67.8533 28.1474 67.973 28.2271 68.1045 28.2806C68.236 28.3341 68.3767 28.3602 68.5183 28.3574C68.813 28.3687 69.1001 28.2606 69.3167 28.0569C69.5333 27.8531 69.6619 27.5703 69.6743 27.2702" fill="#D4D4D4"/>
<path d="M72.8974 28.0043C72.8974 27.4157 73.4006 27.0833 74.1214 27.0833C74.4335 27.0802 74.7445 27.1198 75.0462 27.201V27.0833C75.0557 26.9608 75.0379 26.8376 74.9942 26.7231C74.9505 26.6085 74.882 26.5055 74.7938 26.4216C74.7056 26.3378 74.5999 26.2753 74.4847 26.2388C74.3694 26.2023 74.2476 26.1927 74.1282 26.2108C73.822 26.214 73.5211 26.2924 73.251 26.4393L73.149 26.1969C73.4576 26.0405 73.7971 25.9576 74.1418 25.9546C74.3021 25.9438 74.4629 25.9658 74.6148 26.0193C74.7666 26.0729 74.9063 26.1568 75.0258 26.2662C75.1242 26.3735 75.2003 26.5 75.2493 26.638C75.2984 26.7761 75.3195 26.9228 75.3114 27.0694V28.8421H75.0462V28.3713C74.9247 28.5428 74.764 28.6817 74.578 28.7758C74.392 28.8699 74.1863 28.9164 73.9786 28.9114C73.8499 28.9258 73.7197 28.914 73.5955 28.8768C73.4713 28.8395 73.3555 28.7776 73.255 28.6945C73.1544 28.6114 73.071 28.5089 73.0097 28.3928C72.9483 28.2767 72.9102 28.1493 72.8974 28.0181V28.0043ZM75.053 27.7757V27.4572C74.7449 27.3717 74.4272 27.3275 74.1078 27.3256C73.5162 27.3256 73.183 27.5957 73.183 28.0181C73.183 28.4267 73.5706 28.669 73.999 28.669C74.125 28.6824 74.2524 28.6702 74.3738 28.6332C74.4952 28.5961 74.6081 28.5349 74.7061 28.4531C74.8041 28.3714 74.8852 28.2706 74.9448 28.1567C75.0043 28.0428 75.0411 27.9181 75.053 27.7896" fill="#D4D4D4"/>
<path d="M78.4665 25.9823H78.7181V26.7924C78.8203 26.543 78.9919 26.3294 79.2118 26.1781C79.4317 26.0267 79.6903 25.9442 79.9557 25.9407V26.2385C79.7792 26.2391 79.6047 26.2778 79.4439 26.352C79.2831 26.4262 79.1396 26.5343 79.0227 26.669C78.9058 26.8037 78.8182 26.9621 78.7657 27.1338C78.7132 27.3054 78.697 27.4865 78.7181 27.6649V28.8283H78.4529L78.4665 25.9823Z" fill="#D4D4D4"/>
<path d="M80.6016 27.4157C80.5886 27.2258 80.614 27.0353 80.6765 26.8559C80.739 26.6765 80.8371 26.5121 80.9647 26.3731C81.0923 26.234 81.2467 26.1233 81.4182 26.0477C81.5897 25.9721 81.7747 25.9333 81.9616 25.9338C82.1441 25.9385 82.3237 25.9816 82.4889 26.0606C82.6542 26.1395 82.8015 26.2525 82.9217 26.3925C83.0419 26.5324 83.1322 26.6962 83.187 26.8735C83.2418 27.0508 83.2598 27.2378 83.24 27.4226C83.2434 27.4594 83.2434 27.4965 83.24 27.5334H80.928C80.9298 27.8292 81.0455 28.1124 81.2502 28.3222C81.455 28.532 81.7324 28.6516 82.0228 28.6552C82.2052 28.6559 82.3855 28.6159 82.5511 28.5382C82.7167 28.4604 82.8637 28.3467 82.9816 28.2051L83.1652 28.3782C83.0239 28.5494 82.8467 28.6862 82.6467 28.7785C82.4466 28.8708 82.2288 28.9162 82.0092 28.9114C81.8223 28.9119 81.6373 28.8731 81.4658 28.7975C81.2943 28.7219 81.1399 28.6112 81.0123 28.4721C80.8847 28.3331 80.7866 28.1687 80.7241 27.9893C80.6616 27.8099 80.6362 27.6194 80.6492 27.4295L80.6016 27.4157ZM82.968 27.2841C82.9735 27.1444 82.9517 27.0049 82.904 26.8738C82.8563 26.7427 82.7835 26.6225 82.69 26.5202C82.5964 26.4178 82.4839 26.3353 82.3589 26.2775C82.2339 26.2196 82.0989 26.1875 81.9616 26.1831C81.6844 26.1973 81.4232 26.3196 81.232 26.5245C81.0409 26.7295 80.9345 27.0014 80.9348 27.2841H82.968Z" fill="#D4D4D4"/>
<path d="M83.8452 25.9823H84.1512L85.212 28.5236L86.2796 25.9823H86.5788L85.3276 28.8491H85.0964L83.8452 25.9823Z" fill="#D4D4D4"/>
<path d="M87.2316 27.4157C87.2185 27.2258 87.244 27.0353 87.3064 26.8559C87.3689 26.6765 87.467 26.5121 87.5946 26.3731C87.7222 26.234 87.8766 26.1233 88.0481 26.0477C88.2197 25.9721 88.4047 25.9333 88.5916 25.9338C88.774 25.9385 88.9536 25.9816 89.1188 26.0606C89.2841 26.1395 89.4315 26.2525 89.5516 26.3925C89.6718 26.5324 89.7621 26.6962 89.8169 26.8735C89.8717 27.0508 89.8898 27.2378 89.8699 27.4226V27.5334H87.5172C87.5189 27.8292 87.6346 28.1124 87.8394 28.3222C88.0441 28.532 88.3215 28.6516 88.612 28.6552C88.7945 28.6568 88.9751 28.6173 89.1408 28.5395C89.3066 28.4617 89.4534 28.3475 89.5707 28.2051L89.7543 28.3782C89.6134 28.5498 89.4363 28.6869 89.2361 28.7792C89.036 28.8715 88.818 28.9167 88.5983 28.9114C88.4115 28.9119 88.2265 28.8731 88.0549 28.7975C87.8834 28.7219 87.729 28.6112 87.6014 28.4721C87.4738 28.3331 87.3757 28.1687 87.3132 27.9893C87.2508 27.8099 87.2253 27.6194 87.2384 27.4295L87.2316 27.4157ZM89.5571 27.2841C89.5626 27.1444 89.5408 27.0049 89.4931 26.8738C89.4454 26.7427 89.3727 26.6225 89.2791 26.5202C89.1856 26.4178 89.073 26.3353 88.948 26.2775C88.823 26.2196 88.688 26.1875 88.5508 26.1831C88.2735 26.1973 88.0123 26.3196 87.8212 26.5245C87.63 26.7295 87.5236 27.0014 87.524 27.2841H89.5571Z" fill="#D4D4D4"/>
<path d="M90.8968 25.9823H91.162V26.7924C91.2646 26.5419 91.4373 26.3276 91.6585 26.1762C91.8798 26.0247 92.1398 25.9429 92.4064 25.9407V26.2385C92.2316 26.242 92.0594 26.2829 91.9011 26.3583C91.7427 26.4338 91.6016 26.5422 91.4869 26.6766C91.3722 26.811 91.2865 26.9684 91.2352 27.1387C91.1839 27.3089 91.1682 27.4882 91.1892 27.6649V28.8283H90.924L90.8968 25.9823Z" fill="#D4D4D4"/>
<path d="M93.0319 27.4157C93.0188 27.2258 93.0443 27.0353 93.1068 26.8559C93.1692 26.6765 93.2673 26.5121 93.395 26.3731C93.5226 26.234 93.677 26.1233 93.8485 26.0477C94.02 25.9721 94.205 25.9333 94.3919 25.9338C94.5744 25.9385 94.7539 25.9816 94.9192 26.0606C95.0844 26.1395 95.2318 26.2525 95.352 26.3925C95.4721 26.5324 95.5625 26.6962 95.6172 26.8735C95.672 27.0508 95.6901 27.2378 95.6703 27.4226V27.5334H93.3175C93.3193 27.8292 93.435 28.1124 93.6397 28.3222C93.8444 28.532 94.1219 28.6516 94.4123 28.6552C94.5948 28.6568 94.7754 28.6173 94.9412 28.5395C95.1069 28.4617 95.2537 28.3475 95.3711 28.2051L95.5547 28.3782C95.4134 28.5494 95.2362 28.6862 95.0362 28.7785C94.8361 28.8708 94.6183 28.9162 94.3987 28.9114C94.2118 28.9119 94.0268 28.8731 93.8553 28.7975C93.6838 28.7219 93.5294 28.6112 93.4018 28.4721C93.2741 28.3331 93.176 28.1687 93.1136 27.9893C93.0511 27.8099 93.0256 27.6194 93.0387 27.4295L93.0319 27.4157ZM95.3575 27.2841C95.3648 27.1438 95.3446 27.0034 95.2982 26.8712C95.2517 26.7389 95.1799 26.6173 95.0869 26.5136C94.9939 26.4098 94.8815 26.326 94.7564 26.2669C94.6312 26.2077 94.4958 26.1746 94.3579 26.1692C94.0807 26.1835 93.8195 26.3057 93.6283 26.5107C93.4372 26.7156 93.3308 26.9876 93.3311 27.2703L95.3575 27.2841Z" fill="#D4D4D4"/>
<path d="M96.6971 25.9823H96.9623V26.5155C97.0594 26.3309 97.2049 26.1775 97.3826 26.0723C97.5603 25.9672 97.7632 25.9144 97.9687 25.9199C98.1228 25.9074 98.2776 25.9291 98.4226 25.9835C98.5677 26.0379 98.6993 26.1236 98.8086 26.2349C98.9179 26.3462 99.0021 26.4803 99.0555 26.628C99.1089 26.7756 99.1302 26.9333 99.1179 27.0902V28.8283H98.8459V27.1595C98.8609 27.0344 98.8489 26.9075 98.8108 26.7877C98.7726 26.6679 98.7092 26.5579 98.625 26.4656C98.5409 26.3733 98.4379 26.3008 98.3234 26.2532C98.2089 26.2056 98.0855 26.184 97.9619 26.19C97.8332 26.1844 97.7047 26.2053 97.5841 26.2514C97.4634 26.2976 97.3532 26.368 97.2599 26.4585C97.1666 26.549 97.0921 26.6577 97.041 26.7781C96.9899 26.8985 96.9631 27.0282 96.9623 27.1595V28.8006H96.6971V25.9823Z" fill="#D4D4D4"/>
<path d="M100.138 27.4226C100.132 27.1202 100.219 26.8235 100.387 26.5734C100.554 26.3234 100.793 26.1324 101.071 26.0268C101.35 25.9212 101.653 25.9061 101.94 25.9837C102.228 26.0613 102.484 26.2278 102.674 26.4601L102.484 26.6609C102.371 26.5186 102.229 26.4029 102.069 26.3216C101.908 26.2403 101.732 26.1954 101.552 26.19C101.399 26.1936 101.248 26.228 101.109 26.2914C100.969 26.3548 100.843 26.4458 100.738 26.5592C100.633 26.6725 100.551 26.806 100.497 26.9519C100.443 27.0977 100.418 27.253 100.423 27.4087C100.419 27.5666 100.445 27.7239 100.501 27.8715C100.556 28.019 100.639 28.1539 100.746 28.2685C100.853 28.3831 100.981 28.475 101.123 28.539C101.265 28.603 101.418 28.6377 101.573 28.6413C101.754 28.6365 101.932 28.5913 102.094 28.5087C102.256 28.4261 102.399 28.3083 102.511 28.1635L102.701 28.3366C102.565 28.5122 102.392 28.654 102.194 28.7512C101.996 28.8484 101.779 28.8984 101.559 28.8975C101.371 28.8957 101.184 28.8561 101.011 28.781C100.838 28.7059 100.68 28.5968 100.548 28.4598C100.416 28.3229 100.312 28.1608 100.242 27.9828C100.171 27.8048 100.136 27.6145 100.138 27.4226Z" fill="#D4D4D4"/>
<path d="M103.456 27.4157C103.443 27.2258 103.469 27.0353 103.531 26.8559C103.594 26.6765 103.692 26.5121 103.819 26.3731C103.947 26.234 104.101 26.1233 104.273 26.0477C104.444 25.9721 104.629 25.9333 104.816 25.9338C104.999 25.9385 105.178 25.9816 105.344 26.0606C105.509 26.1395 105.656 26.2525 105.776 26.3925C105.896 26.5324 105.987 26.6962 106.042 26.8735C106.096 27.0508 106.114 27.2378 106.095 27.4226C106.098 27.4594 106.098 27.4965 106.095 27.5334H103.783C103.784 27.8292 103.9 28.1124 104.105 28.3222C104.31 28.532 104.587 28.6516 104.877 28.6552C105.06 28.6559 105.24 28.6159 105.406 28.5382C105.571 28.4604 105.718 28.3467 105.836 28.2051L106.02 28.3782C105.879 28.5494 105.701 28.6862 105.501 28.7785C105.301 28.8708 105.083 28.9162 104.864 28.9114C104.677 28.9119 104.492 28.8731 104.32 28.7975C104.149 28.7219 103.994 28.6112 103.867 28.4721C103.739 28.3331 103.641 28.1687 103.579 27.9893C103.516 27.8099 103.491 27.6194 103.504 27.4295L103.456 27.4157ZM105.816 27.2841C105.822 27.1447 105.801 27.0055 105.754 26.8744C105.707 26.7433 105.635 26.623 105.542 26.5206C105.449 26.4181 105.337 26.3355 105.213 26.2776C105.088 26.2197 104.953 26.1875 104.816 26.1831C104.539 26.1973 104.278 26.3196 104.087 26.5245C103.895 26.7295 103.789 27.0014 103.789 27.2841H105.816Z" fill="#D4D4D4"/>
<path d="M109.195 26.2385H108.794V25.9823H109.195V25.7053C109.186 25.5709 109.203 25.4359 109.247 25.3086C109.29 25.1812 109.358 25.0641 109.447 24.9643C109.525 24.8892 109.617 24.8308 109.717 24.7927C109.818 24.7547 109.925 24.7377 110.032 24.7428C110.173 24.7394 110.313 24.7604 110.447 24.8051V25.0821C110.313 25.0366 110.173 25.0132 110.032 25.0128C109.651 25.0128 109.467 25.2483 109.467 25.7053V25.9753H110.44V26.2316H109.467V28.8214H109.195V26.2385Z" fill="#D4D4D4"/>
<path d="M111.045 27.4226C111.042 27.2281 111.077 27.0349 111.149 26.8544C111.22 26.6739 111.326 26.5096 111.46 26.3711C111.594 26.2326 111.754 26.1226 111.93 26.0475C112.106 25.9724 112.295 25.9338 112.486 25.9338C112.676 25.9338 112.863 25.9721 113.038 26.0464C113.212 26.1208 113.371 26.2298 113.503 26.367C113.636 26.5043 113.741 26.667 113.812 26.8459C113.882 27.0247 113.917 27.216 113.914 27.4087C113.917 27.6033 113.882 27.7964 113.811 27.9769C113.739 28.1574 113.634 28.3217 113.499 28.4602C113.365 28.5988 113.205 28.7088 113.029 28.7838C112.853 28.8589 112.664 28.8976 112.473 28.8975C112.284 28.8976 112.096 28.8593 111.922 28.7849C111.747 28.7105 111.589 28.6015 111.456 28.4643C111.323 28.3271 111.218 28.1643 111.148 27.9855C111.077 27.8066 111.042 27.6153 111.045 27.4226ZM113.622 27.4226C113.627 27.2645 113.602 27.1068 113.547 26.9588C113.492 26.8109 113.408 26.6756 113.301 26.5608C113.194 26.4461 113.066 26.3542 112.924 26.2905C112.781 26.2268 112.628 26.1927 112.473 26.19C112.319 26.1917 112.167 26.2249 112.026 26.2875C111.885 26.3502 111.758 26.441 111.652 26.5547C111.546 26.6683 111.463 26.8025 111.409 26.9492C111.355 27.0959 111.331 27.2522 111.337 27.4087C111.332 27.5669 111.357 27.7245 111.412 27.8725C111.467 28.0205 111.551 28.1558 111.658 28.2705C111.765 28.3853 111.893 28.4772 112.036 28.5408C112.178 28.6045 112.331 28.6387 112.486 28.6413C112.64 28.6396 112.792 28.6064 112.933 28.5438C113.074 28.4812 113.202 28.3903 113.307 28.2766C113.413 28.163 113.496 28.0288 113.55 27.8821C113.604 27.7354 113.628 27.5791 113.622 27.4226Z" fill="#D4D4D4"/>
<path d="M115.016 25.9823H115.281V26.7924C115.383 26.543 115.555 26.3294 115.775 26.1781C115.995 26.0267 116.253 25.9442 116.519 25.9407V26.2385C116.345 26.243 116.173 26.2845 116.016 26.3604C115.858 26.4363 115.718 26.5449 115.604 26.6792C115.49 26.8134 115.405 26.9705 115.354 27.1403C115.303 27.31 115.288 27.4887 115.308 27.6649V28.8283H115.043L115.016 25.9823Z" fill="#D4D4D4"/>
<path d="M119.701 24.7566H119.436V28.8283H119.701V24.7566Z" fill="#D4D4D4"/>
<path d="M121.041 24.8674H121.374V25.2413H121.041V24.8674ZM121.041 25.9823H121.313V28.8283H121.041V25.9823Z" fill="#D4D4D4"/>
<path d="M122.836 26.2385H122.428V25.9823H122.836V25.7053C122.818 25.4351 122.906 25.1687 123.081 24.9643C123.158 24.8892 123.25 24.8308 123.351 24.7927C123.451 24.7547 123.558 24.7377 123.666 24.7428C123.806 24.7394 123.947 24.7604 124.08 24.8051V25.0821C123.947 25.0366 123.807 25.0132 123.666 25.0128C123.285 25.0128 123.101 25.2483 123.101 25.7053V25.9753H124.08V26.2316H123.101V28.8214H122.836V26.2385Z" fill="#D4D4D4"/>
<path d="M124.679 27.4157C124.666 27.2287 124.69 27.041 124.751 26.8639C124.811 26.6869 124.906 26.5241 125.03 26.3856C125.154 26.247 125.304 26.1356 125.472 26.0579C125.639 25.9802 125.821 25.938 126.005 25.9338C126.186 25.9434 126.363 25.9898 126.527 26.0703C126.69 26.1508 126.836 26.2637 126.955 26.4025C127.075 26.5412 127.166 26.7029 127.224 26.8781C127.281 27.0533 127.304 27.2384 127.29 27.4226C127.293 27.4594 127.293 27.4965 127.29 27.5334H124.958C124.959 27.8292 125.075 28.1124 125.28 28.3222C125.485 28.532 125.762 28.6516 126.052 28.6552C126.235 28.6568 126.415 28.6173 126.581 28.5395C126.747 28.4616 126.894 28.3475 127.011 28.2051L127.202 28.3782C127.06 28.5494 126.883 28.6862 126.683 28.7785C126.483 28.8708 126.265 28.9162 126.046 28.9114C125.859 28.9119 125.674 28.8731 125.502 28.7975C125.331 28.7219 125.176 28.6112 125.049 28.4721C124.921 28.333 124.823 28.1687 124.76 27.9893C124.698 27.8099 124.672 27.6194 124.686 27.4295L124.679 27.4157ZM127.004 27.2841C127.011 27.1447 126.99 27.0054 126.943 26.8744C126.896 26.7433 126.824 26.623 126.731 26.5206C126.638 26.4181 126.526 26.3355 126.401 26.2776C126.276 26.2196 126.142 26.1875 126.005 26.1831C125.726 26.1956 125.463 26.3171 125.271 26.5222C125.078 26.7274 124.971 27.0003 124.971 27.2841H127.004Z" fill="#D4D4D4"/>
<path d="M107.461 14.7297C107.596 14.7397 107.731 14.7084 107.849 14.6397C107.896 14.5937 107.931 14.5371 107.952 14.4745C107.974 14.412 107.98 14.3452 107.971 14.2796V11.2328C107.976 10.8342 107.949 10.4358 107.89 10.0418C107.854 9.75248 107.754 9.4753 107.597 9.23159C107.436 9.0143 107.216 8.84855 106.965 8.75379C106.616 8.62445 106.248 8.55201 105.877 8.53913C105.836 8.54029 105.795 8.52909 105.76 8.50694C105.725 8.48478 105.697 8.45264 105.68 8.41449C105.635 8.33705 105.611 8.24841 105.612 8.15827C105.61 8.07019 105.634 7.98352 105.68 7.90899C105.699 7.87342 105.728 7.84414 105.763 7.82453C105.798 7.80492 105.837 7.79579 105.877 7.7982C106.346 7.7982 106.883 7.7982 107.482 7.86744C108.08 7.93669 108.651 7.92977 109.182 7.92977C109.488 7.92977 109.78 7.92977 110.052 7.92977L110.848 7.88821L111.623 7.83974C111.888 7.83974 112.174 7.83974 112.487 7.83974C112.525 7.83642 112.563 7.84532 112.596 7.86519C112.629 7.88505 112.655 7.91489 112.67 7.95054C112.71 8.02699 112.726 8.11376 112.718 8.19983C112.71 8.2905 112.682 8.3782 112.636 8.45603C112.623 8.49146 112.6 8.52215 112.569 8.5443C112.539 8.56646 112.503 8.5791 112.466 8.58068C112.092 8.59386 111.722 8.65672 111.365 8.76764C111.112 8.84892 110.889 9.00575 110.725 9.21774C110.564 9.45328 110.465 9.72781 110.44 10.0141C110.388 10.432 110.365 10.8532 110.372 11.2744V20.0271C110.361 20.4123 110.391 20.7976 110.46 21.1766C110.492 21.4361 110.604 21.6786 110.78 21.869C110.962 22.0372 111.185 22.1521 111.426 22.2014C111.782 22.2828 112.143 22.3384 112.507 22.3676C112.592 22.3847 112.667 22.4343 112.718 22.5061C112.766 22.5775 112.792 22.6619 112.793 22.7485C112.792 22.8372 112.766 22.9238 112.718 22.9977C112.691 23.0346 112.656 23.064 112.616 23.0834C112.576 23.1027 112.531 23.1114 112.487 23.1085C111.923 23.1111 111.36 23.081 110.8 23.0185C110.269 22.9611 109.736 22.9311 109.202 22.9285C108.645 22.9285 108.067 22.9285 107.475 23.0185C106.937 23.0765 106.397 23.1065 105.857 23.1085C105.817 23.111 105.777 23.1018 105.742 23.0822C105.707 23.0626 105.679 23.0333 105.659 22.9977C105.613 22.9232 105.59 22.8365 105.591 22.7485C105.59 22.6626 105.613 22.5781 105.659 22.5061C105.68 22.4695 105.709 22.4381 105.743 22.4142C105.777 22.3902 105.816 22.3743 105.857 22.3676C106.223 22.3399 106.587 22.2844 106.945 22.2014C107.183 22.1509 107.404 22.0361 107.584 21.869C107.758 21.679 107.866 21.4355 107.89 21.1766C107.948 20.7964 107.971 20.4116 107.958 20.0271V16.3016C107.958 15.9139 107.795 15.72 107.468 15.72H100.886C100.559 15.72 100.396 15.8654 100.396 16.1631V20.0271C100.389 20.4122 100.419 20.7972 100.485 21.1766C100.523 21.4342 100.634 21.6749 100.804 21.869C100.997 22.0408 101.232 22.1557 101.484 22.2014C101.84 22.2828 102.202 22.3384 102.565 22.3676C102.607 22.3751 102.647 22.3913 102.682 22.4151C102.717 22.439 102.747 22.4699 102.769 22.5061C102.822 22.5754 102.851 22.6607 102.851 22.7485C102.851 22.8384 102.822 22.9258 102.769 22.9977C102.744 23.0356 102.709 23.0658 102.669 23.0853C102.628 23.1047 102.583 23.1128 102.538 23.1085C101.977 23.1111 101.416 23.0811 100.859 23.0185C100.328 22.9611 99.7945 22.9311 99.2607 22.9285C98.7031 22.9285 98.1251 22.9285 97.5267 23.0185C96.9891 23.0768 96.4489 23.1069 95.9083 23.1085C95.8687 23.1102 95.8293 23.1007 95.7945 23.0811C95.7598 23.0616 95.7309 23.0328 95.7111 22.9977C95.6682 22.9218 95.6448 22.8361 95.6431 22.7485C95.6447 22.663 95.6682 22.5795 95.7111 22.5061C95.7325 22.4701 95.7612 22.4392 95.7952 22.4153C95.8291 22.3915 95.8677 22.3752 95.9083 22.3676C96.2768 22.3398 96.6427 22.2843 97.0031 22.2014C97.2416 22.1509 97.4623 22.0361 97.6423 21.869C97.811 21.6753 97.9178 21.4337 97.9483 21.1766C98.008 20.7966 98.0331 20.4118 98.0231 20.0271V11.2328C98.0299 10.8344 98.0048 10.4361 97.9483 10.0418C97.911 9.75191 97.8086 9.47469 97.6491 9.23159C97.491 9.01339 97.2735 8.84726 97.0235 8.75379C96.674 8.62511 96.3069 8.55269 95.9355 8.53913C95.8933 8.54076 95.8515 8.52985 95.8153 8.50771C95.7791 8.48558 95.75 8.45319 95.7315 8.41449C95.6914 8.33525 95.6704 8.24742 95.6703 8.15827C95.6654 8.07243 95.6818 7.9867 95.7179 7.90899C95.7383 7.87287 95.7682 7.84331 95.8043 7.82372C95.8404 7.80412 95.8811 7.79528 95.9219 7.7982C96.3911 7.7982 96.9215 7.7982 97.5267 7.86744C98.1319 7.93669 98.6963 7.92977 99.2199 7.92977C99.5327 7.92977 99.8183 7.92977 100.09 7.92977L100.886 7.88821L101.668 7.83974C101.935 7.83974 102.221 7.83974 102.525 7.83974C102.564 7.83597 102.603 7.84459 102.637 7.86442C102.671 7.88426 102.698 7.91434 102.715 7.95054C102.752 8.02771 102.767 8.11445 102.756 8.19983C102.751 8.29003 102.725 8.3778 102.681 8.45603C102.667 8.49201 102.642 8.52293 102.611 8.54505C102.579 8.56718 102.542 8.57955 102.504 8.58068C102.131 8.59386 101.76 8.65672 101.403 8.76764C101.151 8.85117 100.929 9.00759 100.763 9.21774C100.608 9.45637 100.51 9.72933 100.478 10.0141C100.431 10.4186 100.409 10.8255 100.41 11.2328V14.2796C100.41 14.5774 100.573 14.7297 100.899 14.7297H107.461Z" fill="#D4D4D4"/>
<path d="M79.1533 14.9098C79.1533 14.8128 79.0785 14.7644 78.9901 14.7644H75.5018C75.3703 14.7644 75.2955 14.7505 75.2774 14.7228C75.262 14.6103 75.262 14.4961 75.2774 14.3835V13.8572C75.2774 12.9224 75.2774 11.6829 75.2774 11.4752C75.2774 11.1566 75.2774 9.77171 75.2774 9.34931C75.2774 8.92691 74.2846 8.35216 73.9854 7.86052C73.8222 7.81204 73.7066 7.81897 73.659 7.86052C73.6066 7.9187 73.5712 7.99066 73.557 8.06826V14.612C73.5627 14.6394 73.5627 14.6677 73.557 14.6951C73.557 14.6951 73.4618 14.7367 73.3326 14.7367H72.3262C72.2862 14.7364 72.2475 14.751 72.2174 14.7778C72.1874 14.8046 72.168 14.8417 72.163 14.8821C72.1548 14.9673 72.1548 15.0531 72.163 15.1383C72.1646 15.2281 72.1806 15.317 72.2106 15.4014C72.2172 15.4461 72.2394 15.4868 72.2731 15.5161C72.3069 15.5453 72.3499 15.5612 72.3942 15.5607H73.4142C73.4958 15.5607 73.5434 15.5815 73.557 15.623C73.5583 15.6415 73.5583 15.66 73.557 15.6784V15.9277C73.557 15.997 73.557 16.0662 73.557 16.1562V20.858C73.5073 21.4809 73.6867 22.1003 74.0602 22.5961C74.2933 22.8031 74.5657 22.959 74.8605 23.0543C75.1552 23.1496 75.4661 23.1822 75.7737 23.1501C76.2109 23.1572 76.6452 23.0773 77.0521 22.9147C77.4222 22.7478 77.7314 22.4669 77.9361 22.1114C77.9462 22.0922 77.9515 22.0708 77.9515 22.0491C77.9515 22.0273 77.9462 22.0059 77.9361 21.9868C77.9155 21.9369 77.8881 21.8902 77.8545 21.8483C77.8216 21.8085 77.7795 21.7776 77.7321 21.7582C77.7121 21.7479 77.69 21.7425 77.6675 21.7425C77.6451 21.7425 77.6229 21.7479 77.6029 21.7582C77.4298 21.8751 77.2423 21.9682 77.0453 22.0352C76.793 22.1197 76.5289 22.1618 76.2633 22.1599C76.0953 22.1722 75.9275 22.1316 75.7828 22.0437C75.6381 21.9558 75.5234 21.8247 75.4542 21.6682C75.2788 21.186 75.2024 20.6722 75.2298 20.1587V16.1147C75.2161 15.9603 75.2161 15.8051 75.2298 15.6507C75.2298 15.6092 75.291 15.5884 75.3726 15.5884H78.9153C78.9604 15.5891 79.0043 15.5735 79.0392 15.5444C79.0741 15.5152 79.0976 15.4744 79.1057 15.4291C79.1305 15.3436 79.1442 15.2551 79.1465 15.166C79.1547 15.0808 79.1547 14.995 79.1465 14.9098" fill="#D4D4D4"/>
<path d="M8.52136 6.87031C9.92886 6.02541 11.509 5.52301 13.1385 5.40229C14.0503 4.79754 15.0267 4.30039 16.0489 3.92042C16.9258 3.58199 17.8387 3.34958 18.7688 3.22795C22.4136 2.7917 24.6236 4.84139 25.1744 9.05156C25.331 10.8141 25.0746 12.5892 24.4264 14.2312C24.0549 15.2371 23.5218 16.1732 22.8488 17.001C23.4563 17.116 24.0263 17.3825 24.508 17.7766C25.3696 18.5049 25.9797 19.4949 26.2487 20.6018C26.5765 21.7436 26.5765 22.957 26.2487 24.0988C27.8166 23.0396 29.1305 21.6349 30.0931 19.9887C31.0557 18.3425 31.6424 16.4968 31.8097 14.5884C31.977 12.68 31.7206 10.7577 31.0596 8.96386C30.3986 7.17001 29.3499 5.55052 27.991 4.2253C26.6322 2.90007 24.998 1.90306 23.2096 1.30805C21.4211 0.713049 19.5241 0.5353 17.6591 0.787964C15.794 1.04063 14.0087 1.71723 12.4352 2.76769C10.8617 3.81815 9.54032 5.21556 8.56896 6.85646" fill="#D4D4D4"/>
<path d="M5.33221 28.6344C5.28558 28.5536 5.261 28.4615 5.261 28.3678C5.261 28.2741 5.28558 28.182 5.33221 28.1012C5.55664 27.7538 5.8019 27.4207 6.06661 27.1041C7.2912 25.7306 8.02441 23.9762 8.14738 22.1253C6.84744 20.3658 5.96917 18.3214 5.5826 16.155C5.19603 13.9886 5.31186 11.7602 5.92085 9.64753C6.52983 7.53482 7.61514 5.59623 9.09022 3.98634C10.5653 2.37646 12.3893 1.13981 14.4169 0.375C11.4153 0.833612 8.59732 2.13073 6.27611 4.12221C3.9549 6.1137 2.22135 8.72157 1.26809 11.656C0.314831 14.5905 0.17919 17.7367 0.876238 20.7449C1.57329 23.7532 3.07573 26.5057 5.21662 28.6967L5.33221 28.6344Z" fill="#D4D4D4"/>
<path d="M33.1302 14.5982C32.96 17.1696 32.1029 19.6448 30.6516 21.7561C29.2002 23.8675 27.2098 25.5348 24.8955 26.5778C22.7875 29.1676 18.7756 30.9265 13.4104 31.5704C12.1661 31.7228 10.8469 31.8059 9.48009 31.8336C11.982 33.1191 14.7656 33.7307 17.5654 33.6101C20.3653 33.4894 23.0881 32.6405 25.4744 31.1442C27.8607 29.648 29.831 27.5543 31.1973 25.0628C32.5637 22.5712 33.2806 19.7648 33.2798 16.911C33.2794 16.1373 33.2272 15.3646 33.1234 14.5982" fill="#D4D4D4"/>
<path d="M24.1407 26.8894C24.5333 26.4887 24.8843 26.0478 25.1879 25.5737C25.4134 25.2 25.6046 24.806 25.7591 24.3965C26.1906 23.213 26.2406 21.9202 25.9019 20.7057C25.6623 19.7444 25.1517 18.8754 24.4331 18.2059C23.8921 17.7071 23.2079 17.3987 22.4815 17.3265H22.1211L22.3659 17.0564C23.2318 16.051 23.8805 14.8713 24.2699 13.5941C24.7706 12.1567 24.9585 10.6257 24.8207 9.10696C24.2971 5.11145 22.2231 3.17948 18.8028 3.56726C17.902 3.69253 17.0188 3.92493 16.1712 4.25972C15.3676 4.56405 14.5918 4.93941 13.8524 5.38151C7.52852 9.2039 8.18811 16.3086 8.41251 18.8084L8.45331 19.3277C8.57318 20.3976 8.57318 21.4778 8.45331 22.5477C8.26054 24.3282 7.52314 26.002 6.34534 27.3326C6.09832 27.6404 5.87118 27.9642 5.66535 28.302C5.65542 28.3249 5.65029 28.3497 5.65029 28.3747C5.65029 28.3998 5.65542 28.4245 5.66535 28.4474C5.83276 28.4173 5.99846 28.378 6.16174 28.3297H6.27054C6.33282 28.3107 6.39649 28.2969 6.46094 28.2882L6.78054 28.1912L7.16133 27.9973C7.25653 27.9558 7.48319 27.8242 7.84132 27.6026H7.88892L8.69811 27.0833C8.91702 26.9327 9.10236 26.7369 9.2421 26.5085C9.6394 25.7907 9.87188 24.9905 9.92209 24.168C10.0595 22.8565 10.0091 21.5316 9.77249 20.2348C9.77249 20.124 9.7317 19.9786 9.7045 19.8124C9.6773 19.6462 9.6569 19.5701 9.6297 19.4524C9.50042 18.8693 9.40056 18.28 9.3305 17.6866C8.91587 15.1439 9.38477 12.5335 10.6565 10.3049C11.748 8.42182 13.4221 6.96059 15.4164 6.15014L15.6816 6.04628C15.9373 5.95158 16.1985 5.87295 16.4636 5.81084L16.7152 5.75544C17.1708 5.6585 17.5788 5.5754 17.9392 5.53385H18.7212C20.53 5.53385 21.4411 6.5033 22.0123 9.2039C22.0123 9.3147 22.0599 9.43242 22.0803 9.54321C22.1007 9.65401 22.0803 9.70248 22.1279 9.77865C22.1548 9.92978 22.173 10.0824 22.1823 10.2357C22.2214 10.7126 22.2214 11.1921 22.1823 11.6691C21.9851 13.8503 21.108 17.0218 18.9184 18.8984V18.933C18.8931 18.9528 18.8743 18.9799 18.8645 19.0109C18.8548 19.0418 18.8546 19.0751 18.864 19.1061C18.8748 19.1445 18.8984 19.1778 18.9306 19.2005C18.9628 19.2232 19.0017 19.2339 19.0408 19.2308H19.2176C20.1973 19.2562 21.1646 19.4602 22.0735 19.8332L22.1551 19.8678H22.2299C22.3183 19.9163 22.4067 19.9648 22.4883 20.0202C22.9446 20.2795 23.2908 20.7011 23.4607 21.2043C23.4607 21.2043 23.4607 21.2043 23.4607 21.2458C23.5525 21.5799 23.605 21.924 23.6171 22.2707C23.6245 23.0707 23.4074 23.8563 22.9915 24.535C22.6472 25.082 22.2282 25.5763 21.7471 26.0031C21.5363 26.19 21.312 26.377 21.0672 26.557C20.8224 26.7371 20.632 26.8756 20.3872 27.021C19.9492 27.3023 19.495 27.5567 19.0272 27.7827C18.2975 28.1375 17.5456 28.4429 16.7764 28.6967L16.1576 28.8975C14.6996 29.3365 13.2072 29.6469 11.6969 29.8254H11.5609C10.8061 29.9155 10.0241 29.9847 9.23531 30.0193L8.48051 30.0609L8.74571 29.9085L9.1469 29.687C10.7333 28.8246 12.203 27.7562 13.5192 26.5085C15.4192 24.8048 16.5885 22.4111 16.7764 19.8401C16.8093 18.7643 16.757 17.6875 16.62 16.6202C16.3276 13.7949 16.0624 11.1636 18.66 9.38394C18.6922 9.36175 18.7163 9.32937 18.7286 9.29181C18.7409 9.25426 18.7407 9.21363 18.728 9.17621C18.7147 9.14524 18.6928 9.1189 18.665 9.10045C18.6373 9.08199 18.6048 9.07222 18.5716 9.07234C14.988 9.94484 15.1716 13.9196 15.2804 17.0634C15.3648 18.0078 15.3648 18.958 15.2804 19.9025C14.8316 22.79 14.5188 23.3301 12.7577 25.3452C12.6029 25.5176 12.4395 25.6817 12.2681 25.8369C10.4539 27.3557 8.4787 28.6633 6.37934 29.7354L6.27054 29.7908L5.77415 30.0263C5.59055 30.1163 5.40695 30.1994 5.23015 30.2686C4.87137 30.412 4.5033 30.53 4.12857 30.6218C4.10239 30.628 4.07813 30.6408 4.05797 30.6589C4.0378 30.6771 4.02234 30.7 4.01297 30.7256C3.99986 30.7513 3.99301 30.7798 3.99301 30.8087C3.99301 30.8377 3.99986 30.8662 4.01297 30.8918L4.87656 32.1383C4.89274 32.1594 4.91334 32.1766 4.93687 32.1885C4.9604 32.2005 4.98625 32.207 5.01255 32.2075C5.03688 32.2039 5.06003 32.1945 5.08011 32.18C5.1002 32.1656 5.11666 32.1465 5.12816 32.1244C5.25055 31.9236 5.87615 30.9611 6.48814 30.8918H6.57654C6.80773 30.8918 7.01173 31.0511 7.18853 31.3766C7.20239 31.401 7.22215 31.4215 7.24595 31.4361C7.26975 31.4506 7.29679 31.4587 7.32453 31.4597C7.83452 31.4597 8.34452 31.4597 8.84091 31.4597C10.356 31.4635 11.8701 31.3826 13.3765 31.2173C18.2588 30.6287 21.9987 29.1399 24.1475 26.8894" fill="#D4D4D4"/>
</svg>
