<svg width="129" height="27" viewBox="0 0 129 27" fill="none" xmlns="http://www.w3.org/2000/svg">
<path d="M17.8708 9.9265C17.8708 11.8202 17.4656 13.4999 16.6553 14.9657C15.8451 16.4314 14.6798 17.574 13.1593 18.3934C11.6389 19.2128 9.84999 19.6224 7.79244 19.6224H0.5V0.3125H7.79244C9.8682 0.3125 11.6617 0.713081 13.173 1.51425C14.6843 2.31542 15.8451 3.44433 16.6553 4.901C17.4656 6.35768 17.8708 8.03282 17.8708 9.9265ZM7.38275 15.4436C9.2036 15.4436 10.6193 14.9611 11.6298 13.9961C12.6404 13.031 13.1457 11.6745 13.1457 9.9265C13.1457 8.17849 12.6404 6.82199 11.6298 5.85694C10.6193 4.89189 9.2036 4.40938 7.38275 4.40938H5.17044V15.4436H7.38275ZM26.3171 4.19088C27.8284 4.19088 29.1804 4.50497 30.3731 5.13316C31.5657 5.76135 32.5034 6.66721 33.1862 7.85075C33.8691 9.0343 34.2105 10.4181 34.2105 12.0023C34.2105 13.5864 33.8691 14.9702 33.1862 16.1538C32.5034 17.3373 31.5657 18.2432 30.3731 18.8713C29.1804 19.4995 27.8284 19.8136 26.3171 19.8136C24.8058 19.8136 23.4493 19.4995 22.2476 18.8713C21.0458 18.2432 20.1036 17.3373 19.4207 16.1538C18.7379 14.9702 18.3965 13.5864 18.3965 12.0023C18.3965 10.4181 18.7379 9.0343 19.4207 7.85075C20.1036 6.66721 21.0458 5.76135 22.2476 5.13316C23.4493 4.50497 24.8058 4.19088 26.3171 4.19088ZM26.3171 8.23313C25.4249 8.23313 24.6738 8.55632 24.0639 9.20272C23.4539 9.84912 23.1489 10.7823 23.1489 12.0023C23.1489 13.2222 23.4539 14.1508 24.0639 14.7881C24.6738 15.4254 25.4249 15.7441 26.3171 15.7441C27.2094 15.7441 27.9559 15.4254 28.5568 14.7881C29.1576 14.1508 29.4581 13.2222 29.4581 12.0023C29.4581 10.7823 29.1576 9.84912 28.5568 9.20272C27.9559 8.55632 27.2094 8.23313 26.3171 8.23313ZM52.462 19.6224H47.7916L39.9802 7.76882V19.6224H35.3098V0.3125H39.9802L47.7916 12.2754V0.3125H52.462V19.6224ZM61.482 4.19088C62.9933 4.19088 64.3452 4.50497 65.5379 5.13316C66.7305 5.76135 67.6683 6.66721 68.3511 7.85075C69.0339 9.0343 69.3753 10.4181 69.3753 12.0023C69.3753 13.5864 69.0339 14.9702 68.3511 16.1538C67.6683 17.3373 66.7305 18.2432 65.5379 18.8713C64.3452 19.4995 62.9933 19.8136 61.482 19.8136C59.9707 19.8136 58.6142 19.4995 57.4124 18.8713C56.2107 18.2432 55.2684 17.3373 54.5856 16.1538C53.9028 14.9702 53.5614 13.5864 53.5614 12.0023C53.5614 10.4181 53.9028 9.0343 54.5856 7.85075C55.2684 6.66721 56.2107 5.76135 57.4124 5.13316C58.6142 4.50497 59.9707 4.19088 61.482 4.19088ZM61.482 8.23313C60.5898 8.23313 59.8387 8.55632 59.2287 9.20272C58.6187 9.84912 58.3137 10.7823 58.3137 12.0023C58.3137 13.2222 58.6187 14.1508 59.2287 14.7881C59.8387 15.4254 60.5898 15.7441 61.482 15.7441C62.3742 15.7441 63.1207 15.4254 63.7216 14.7881C64.3225 14.1508 64.6229 13.2222 64.6229 12.0023C64.6229 10.7823 64.3225 9.84912 63.7216 9.20272C63.1207 8.55632 62.3742 8.23313 61.482 8.23313ZM79.1054 15.6075V19.6224H77.0023C75.2179 19.6224 73.8295 19.1809 72.8372 18.2978C71.8448 17.4147 71.3486 15.9535 71.3486 13.9141V8.31507H69.3002V4.38206H71.3486V0.640251H76.0191V4.38206H79.0781V8.31507H76.0191V13.9961C76.0191 14.5969 76.142 15.0157 76.3878 15.2524C76.6336 15.4891 77.0478 15.6075 77.6305 15.6075H79.1054ZM85.0663 12.8489V19.6224H80.3959V0.3125H87.9615C90.2557 0.3125 92.0037 0.881505 93.2055 2.01953C94.4072 3.15756 95.0081 4.69159 95.0081 6.62169C95.0081 7.82344 94.7395 8.89318 94.2024 9.83091C93.6652 10.7686 92.8686 11.5061 91.8125 12.0432C90.7564 12.5804 89.4728 12.8489 87.9615 12.8489H85.0663ZM87.4425 9.10713C89.318 9.10713 90.2557 8.27865 90.2557 6.62169C90.2557 4.9283 89.318 4.08162 87.4425 4.08162H85.0663V9.10713H87.4425ZM101.761 4.19088C102.926 4.19088 103.928 4.4549 104.765 4.98294C105.603 5.51098 106.222 6.2302 106.623 7.14062V4.38206H111.266V19.6224H106.623V16.8639C106.222 17.7743 105.603 18.4935 104.765 19.0216C103.928 19.5496 102.926 19.8136 101.761 19.8136C100.505 19.8136 99.3804 19.4995 98.388 18.8713C97.3957 18.2432 96.6127 17.3373 96.0391 16.1538C95.4656 14.9702 95.1788 13.5864 95.1788 12.0023C95.1788 10.3999 95.4656 9.01154 96.0391 7.8371C96.6127 6.66265 97.3957 5.76135 98.388 5.13316C99.3804 4.50497 100.505 4.19088 101.761 4.19088ZM103.263 8.28775C102.262 8.28775 101.456 8.6155 100.846 9.271C100.236 9.92651 99.9312 10.8369 99.9312 12.0023C99.9312 13.1676 100.236 14.078 100.846 14.7335C101.456 15.389 102.262 15.7168 103.263 15.7168C104.247 15.7168 105.052 15.3799 105.68 14.7062C106.309 14.0325 106.623 13.1312 106.623 12.0023C106.623 10.8551 106.309 9.94926 105.68 9.28466C105.052 8.62005 104.247 8.28775 103.263 8.28775ZM116.681 4.38206L120.34 13.7229L123.755 4.38206H128.917L119.412 26.8876H114.277L117.855 19.0489L111.464 4.38206H116.681Z" fill="#D4D4D4"/>
</svg>
