<svg width="177" height="26" viewBox="0 0 177 26" fill="none" xmlns="http://www.w3.org/2000/svg">
<path d="M166.885 9.23898H169.445L169.667 10.5619H169.761C170.488 9.56971 171.532 9.04053 172.923 9.04053C175.357 9.04053 176.938 10.6611 176.938 13.2078V20.7817H174.092V14.1008C174.092 12.5794 173.397 11.7856 172.038 11.7856C170.678 11.7856 169.761 12.8109 169.761 14.4315V20.8478H166.885V9.23898Z" fill="#D4D4D4"/>
<path d="M156.389 19.3926C155.472 18.3011 154.998 16.8459 154.998 15.093C154.998 13.3401 155.472 11.8518 156.389 10.7604C157.337 9.63586 158.633 9.10668 160.372 9.10668C162.079 9.10668 163.375 9.66893 164.323 10.7604C165.272 11.8849 165.714 13.307 165.714 15.093C165.714 16.8459 165.24 18.3011 164.323 19.3926C163.407 20.484 162.079 21.0462 160.372 21.0462C158.665 21.0462 157.337 20.484 156.389 19.3926ZM160.403 11.6864C158.76 11.6864 157.938 12.8109 157.938 15.0599C157.938 17.2759 158.76 18.4004 160.403 18.4004C162.047 18.4004 162.869 17.2759 162.869 15.0599C162.869 12.8109 162.016 11.6864 160.403 11.6864Z" fill="#D4D4D4"/>
<path d="M151.014 20.8147V9.23898H153.86V20.8147H151.014ZM154.144 6.29543C154.144 5.30322 153.385 4.50945 152.437 4.50945C151.489 4.50945 150.73 5.30322 150.73 6.29543C150.73 7.28764 151.489 8.0814 152.437 8.0814C153.385 8.0814 154.144 7.28764 154.144 6.29543Z" fill="#D4D4D4"/>
<path d="M144.187 17.4743V11.7856H142.701V9.23897H144.313V6.75845L146.842 6.46079H147.063V9.2059H149.087V11.7526H147.063V16.8128C147.063 17.9043 147.506 18.3673 148.486 18.3673C148.897 18.3673 149.245 18.3011 149.561 18.2019H149.782V20.6824C149.434 20.7817 148.644 20.9801 147.696 20.9801C145.198 20.9801 144.187 19.5249 144.187 17.4743Z" fill="#D4D4D4"/>
<path d="M138.496 20.8147V9.23898H141.341V20.8147H138.496ZM141.626 6.29543C141.626 5.30322 140.867 4.50945 139.919 4.50945C138.97 4.50945 138.212 5.30322 138.212 6.29543C138.212 7.28764 138.97 8.0814 139.919 8.0814C140.835 8.0814 141.626 7.28764 141.626 6.29543Z" fill="#D4D4D4"/>
<path d="M126.641 16.8459V9.27205H129.486V16.0191C129.486 17.5404 130.181 18.3342 131.541 18.3342C132.9 18.3342 133.817 17.3089 133.817 15.6883V9.27205H136.662V20.8478H134.101L133.88 19.5249H133.785C133.058 20.5171 132.015 21.0463 130.624 21.0463C128.19 21.0132 126.641 19.3926 126.641 16.8459Z" fill="#D4D4D4"/>
<path d="M119.971 17.4743V11.7856H118.485V9.23897H120.097V6.75845L122.626 6.46079H122.847V9.2059H124.871V11.7526H122.847V16.8128C122.847 17.9043 123.29 18.3673 124.27 18.3673C124.681 18.3673 125.029 18.3011 125.345 18.2019H125.566V20.6824C125.218 20.7817 124.428 20.9801 123.48 20.9801C120.982 20.9801 119.971 19.5249 119.971 17.4743Z" fill="#D4D4D4"/>
<path d="M107.736 9.23898H110.297L110.518 10.5619H110.613C111.34 9.56971 112.384 9.04053 113.775 9.04053C116.209 9.04053 117.789 10.6611 117.789 13.2078V20.7817H114.944V14.1008C114.944 12.5794 114.249 11.7856 112.889 11.7856C111.53 11.7856 110.613 12.8109 110.613 14.4315V20.8478H107.736V9.23898Z" fill="#D4D4D4"/>
<path d="M102.9 5.27014H105.84V20.8478H102.9V5.27014Z" fill="#D4D4D4"/>
<path d="M87.9473 19.3926C87.1254 18.3011 86.746 16.8459 86.746 15.0599C86.746 13.307 87.157 11.8518 87.9473 10.7604C88.7376 9.66893 89.8757 9.10668 91.2983 9.10668C92.626 9.10668 93.6376 9.60278 94.3331 10.5619H94.4279V5.27014H97.2731V20.8478H94.7124L94.4279 19.591H94.3331C93.6376 20.5501 92.626 21.0463 91.2983 21.0463C89.9073 21.0132 88.8008 20.484 87.9473 19.3926ZM92.0886 18.4004C93.7641 18.4004 94.5228 17.0113 94.5228 15.0269C94.5228 13.0424 93.7641 11.6533 92.0886 11.6533C90.3815 11.6533 89.6544 12.9763 89.6544 15.0269C89.6544 17.0113 90.4131 18.4004 92.0886 18.4004Z" fill="#D4D4D4"/>
<path d="M76.6299 19.3595C75.6815 18.235 75.2073 16.8128 75.2073 15.0599C75.2073 13.307 75.6499 11.9179 76.5667 10.7604C77.4834 9.60279 78.8112 9.04053 80.4867 9.04053C82.0673 9.04053 83.3318 9.56971 84.2486 10.6281C85.1654 11.6864 85.6395 13.0424 85.6395 14.663V15.8206H78.1157C78.1473 17.4743 78.9376 18.4996 80.5499 18.4996C81.7196 18.4996 82.4467 18.0696 82.7312 17.1766H85.5131C85.355 18.2681 84.8176 19.1941 83.9325 19.9217C83.0473 20.6494 81.9408 20.9801 80.5499 20.9801C78.8744 21.0132 77.5783 20.484 76.6299 19.3595ZM82.7312 13.9024C82.668 12.5133 81.9092 11.5541 80.4867 11.5541C78.9692 11.5541 78.1789 12.4802 78.1157 13.9024H82.7312Z" fill="#D4D4D4"/>
<path d="M70.9706 20.8147V9.23898H73.8157V20.8147H70.9706ZM74.1002 6.29543C74.1002 5.30322 73.3415 4.50945 72.3931 4.50945C71.4447 4.50945 70.686 5.30322 70.686 6.29543C70.686 7.28764 71.4447 8.0814 72.3931 8.0814C73.3099 8.0814 74.1002 7.28764 74.1002 6.29543Z" fill="#D4D4D4"/>
<path d="M66.2289 5.27014H69.0741V20.8478H66.2289V5.27014Z" fill="#D4D4D4"/>
<path d="M51.9715 10.7273C51.1496 9.60278 50.0432 9.07361 48.6838 9.07361C47.3561 9.07361 46.3128 9.56971 45.6174 10.5288H45.5225L45.238 9.27205H41.887V10.6942L42.6774 11.5541V24.9489H45.5225V19.591H45.6174C46.3128 20.5501 47.3244 21.0463 48.6838 21.0463C50.0748 21.0463 51.1812 20.484 52.0032 19.3926C52.8251 18.2681 53.2044 16.8459 53.2044 15.093C53.2044 13.274 52.7935 11.8187 51.9715 10.7273ZM47.8619 18.4004C47.0083 18.4004 46.4077 18.1027 45.9967 17.4743C45.6174 16.8459 45.4277 16.0521 45.4277 15.0599C45.4277 14.0677 45.6174 13.274 46.0283 12.6456C46.4393 11.9841 47.0399 11.6864 47.8935 11.6864C49.6006 11.6864 50.3277 13.0424 50.3277 15.0599C50.3277 17.0443 49.569 18.4004 47.8619 18.4004Z" fill="#D4D4D4"/>
<path d="M63.6049 10.7273C62.783 9.60278 61.6765 9.07361 60.3172 9.07361C58.9894 9.07361 57.9462 9.56971 57.2507 10.5288H57.1559L56.8714 9.27205H53.5204V10.6942L54.3107 11.5541V24.9489H57.1559V19.591H57.2507C57.9462 20.5501 58.9578 21.0463 60.3172 21.0463C61.7081 21.0463 62.8146 20.484 63.6365 19.3926C64.4585 18.2681 64.8378 16.8459 64.8378 15.093C64.8378 13.274 64.4585 11.8187 63.6049 10.7273ZM59.5269 18.4004C58.6733 18.4004 58.0727 18.1027 57.6617 17.4743C57.2823 16.8459 57.0927 16.0521 57.0927 15.0599C57.0927 14.0677 57.2823 13.274 57.6933 12.6456C58.1043 11.9841 58.7049 11.6864 59.5585 11.6864C61.2656 11.6864 61.9927 13.0424 61.9927 15.0599C61.9611 17.0443 61.2023 18.4004 59.5269 18.4004Z" fill="#D4D4D4"/>
<path d="M36.5761 5.27014L41.7922 20.6163V20.8478H38.5677L37.5561 17.5735H31.7393L30.7277 20.8478H27.6613V20.6163L32.8774 5.27014H36.5761ZM32.5929 14.8615H36.7025L34.6793 8.37906H34.5845L32.5929 14.8615Z" fill="#D4D4D4"/>
<path fill-rule="evenodd" clip-rule="evenodd" d="M11.918 25.875C18.5002 25.875 23.8361 20.2925 23.8361 13.4063C23.8361 6.51996 18.5002 0.9375 11.918 0.9375C5.3359 0.9375 0 6.51996 0 13.4063C0 20.2925 5.3359 25.875 11.918 25.875ZM5.34257 15.7876V15.523L10.4322 5.27014H13.4671L18.5251 15.523V15.7876H15.2374L11.9813 8.80902H11.8864L8.5987 15.7876H5.34257ZM13.6251 19.7895C13.6251 20.7758 12.8608 21.5754 11.918 21.5754C10.9753 21.5754 10.211 20.7758 10.211 19.7895C10.211 18.8031 10.9753 18.0035 11.918 18.0035C12.8608 18.0035 13.6251 18.8031 13.6251 19.7895Z" fill="#D4D4D4"/>
</svg>
