<svg width="169" height="26" viewBox="0 0 169 26" fill="none" xmlns="http://www.w3.org/2000/svg">
<path fill-rule="evenodd" clip-rule="evenodd" d="M61.9437 21.4142V9.8978L58.6135 17.2746H56.6822L53.3531 9.92572V21.4142H50.4138V4.57772H53.7721L57.6895 12.8831L61.5509 4.57772H64.8812V21.4142H61.9425H61.9437ZM76.9798 8.37812L74.7135 15.0224H79.2187L76.9798 8.37812ZM81.3729 21.4136L80.142 17.8384H73.7896L72.5587 21.4136H69.4245L75.2732 4.57713H78.687L84.5071 21.4136H81.3735H81.3729ZM98.1113 8.51892C98.1113 8.51892 98.1113 8.35019 98.0833 8.32227C97.9152 8.01216 97.4676 7.44896 97.1874 7.42104H92.1225V11.9254H97.0479C97.2995 11.9254 97.8592 11.3628 98.0833 10.9689C98.0833 10.9689 98.1113 10.9119 98.1113 10.8561V8.51892ZM98.5584 21.4136L94.8091 14.7408H92.1225V21.4142H89.1845V4.60564H97.0479C97.7191 4.60564 98.5023 4.8314 99.0627 5.22528C99.4543 5.50688 100.294 6.40752 100.545 6.77348C100.881 7.28024 101.049 7.89987 101.049 8.49099V10.9119C101.055 11.5214 100.879 12.119 100.545 12.6294C100.294 12.9954 99.4543 13.8402 99.0627 14.1218C98.8385 14.2905 98.3629 14.4877 98.0273 14.5436L102.029 21.4136H98.5584ZM109.524 17.3031C109.524 17.3031 109.524 17.3875 109.552 17.416C109.887 17.9228 110.476 18.5418 110.783 18.7111C110.839 18.739 110.895 18.739 110.923 18.739H111.567L111.15 17.7529L113.836 16.8522L114.645 18.739H115.008C115.008 18.739 115.092 18.739 115.148 18.7105C115.456 18.5418 115.988 17.9228 116.323 17.4154C116.352 17.3596 116.352 17.3031 116.352 17.3031V8.60328C116.352 8.60328 116.352 8.51892 116.323 8.49099C115.988 7.98423 115.456 7.47748 115.149 7.30875C115.092 7.28024 115.036 7.28024 115.008 7.28024H110.923C110.923 7.28024 110.811 7.28024 110.783 7.30875C110.475 7.47748 109.887 7.98423 109.552 8.49099C109.524 8.54743 109.524 8.60387 109.524 8.60387V17.3031ZM115.708 21.5544L116.799 24.0039H113.693L112.658 21.5544H110.811C110.196 21.5544 109.524 21.3287 109.077 21.0477C108.488 20.7096 107.37 19.4989 107.033 19.0206C106.698 18.5139 106.586 17.9507 106.586 17.416V8.60328C106.586 8.0686 106.698 7.5054 107.033 6.99923C107.37 6.5204 108.488 5.30964 109.076 4.9716C109.524 4.69 110.196 4.46484 110.811 4.46484H115.064C115.652 4.46484 116.352 4.6906 116.799 4.9716C117.387 5.30964 118.478 6.5204 118.842 6.99864C119.178 7.5054 119.289 8.0686 119.289 8.60328V17.416C119.289 17.9507 119.178 18.5139 118.842 19.0206C118.479 19.4989 117.387 20.7096 116.8 21.0477C116.38 21.2734 116.1 21.4416 115.68 21.498L115.708 21.5544ZM125.182 21.4142V4.57772H135.703V7.39311H128.12V11.6444H135.255V14.4598H128.12V18.5983H135.703V21.4142H125.182ZM147.535 7.39311V21.4136H144.596V7.39311H140.064V4.57713H152.069V7.39311H147.536H147.535ZM160.671 8.37812L158.405 15.0224H162.91L160.671 8.37812ZM165.064 21.4136L163.834 17.8384H157.481L156.25 21.4136H153.116L158.964 4.57713H162.379L168.199 21.4136H165.064Z" fill="#D4D4D4"/>
<path fill-rule="evenodd" clip-rule="evenodd" d="M0.70105 0.556641L9.09262 12.9999L0.70105 25.4437H5.39456L13.7861 12.9999L7.46533 3.6673H12.1588L18.4546 13.0005L10.0881 25.4437H24.1686L32.5351 12.9999L26.2716 3.6673H30.9651L37.2287 13.0005L28.8621 25.4431H33.53L41.9216 12.9993L33.53 0.556641H19.4721L27.841 12.9999L21.5459 22.3336H16.8774L23.1481 13.0005L14.781 0.556641H0.70105Z" fill="#D4D4D4"/>
</svg>
